<?xml version="1.0" standalone="no"?>
<!DOCTYPE svg PUBLIC "-//W3C//DTD SVG 1.1//EN"
  "http://www.w3.org/Graphics/SVG/1.1/DTD/svg11.dtd">
<!-- Created with matplotlib (http://matplotlib.sourceforge.net/) -->
<svg width="576pt" height="432pt" viewBox="0 0 576 432"
   xmlns="http://www.w3.org/2000/svg"
   xmlns:xlink="http://www.w3.org/1999/xlink"
   version="1.1"
   id="svg1">
<g id="figure1">
<g id="patch1">
<path style="fill: #ffffff; stroke: #ffffff; stroke-width: 1.000000; stroke-linejoin: round; stroke-linecap: square;  opacity: 1.000000"  d="M0.000000 432.000000L576.000000 432.000000L576.000000 0.000000
L0.000000 0.000000L0.000000 432.000000"/>
</g>
<g id="axes1">
<g id="patch2">
<path style="fill: #ffffff; opacity: 1.000000"  d="M72.000000 388.800000L518.400000 388.800000L518.400000 43.200000
L72.000000 43.200000L72.000000 388.800000"/>
</g>
<g id="line2d1">
<defs>
  <clipPath id="p50431ccdcb28178602d99d9270004dde">
<rect x="72.000000" y="43.200000" width="446.400000" height="345.600000"/>
  </clipPath>
</defs><path style="fill: none; stroke: #008000; stroke-width: 3.000000; stroke-linejoin: round; stroke-linecap: butt; stroke-dasharray: 6.000000,6.000000; stroke-dashoffset: 0.000000; opacity: 1.000000" clip-path="url(#p50431ccdcb28178602d99d9270004dde)" d="M72.000000 345.600000L87.393103 345.600000L102.786207 319.680000
L118.179310 319.680000L133.572414 319.680000L148.965517 311.040000
L164.358621 311.040000L179.751724 311.040000L195.144828 311.040000
L210.537931 293.760000L225.931034 293.760000L241.324138 285.120000
L256.717241 285.120000L272.110345 285.120000L287.503448 272.160000
L302.896552 267.840000L318.289655 259.200000L333.682759 259.200000
L349.075862 259.200000L364.468966 250.560000L379.862069 239.328000
L395.255172 233.280000L410.648276 233.280000L426.041379 224.640000
L441.434483 216.000000L456.827586 207.360000L472.220690 207.360000
L487.613793 198.720000L503.006897 198.720000L518.400000 190.080000"/>
</g>
<g id="line2d2">
<path style="fill: none; stroke: #000000; stroke-width: 1.000000; stroke-linejoin: round; stroke-linecap: butt; stroke-dasharray: 1.000000,3.000000; stroke-dashoffset: 0.000000; opacity: 1.000000" clip-path="url(#p50431ccdcb28178602d99d9270004dde)" d="M72.000000 345.600000L87.393103 336.960000L102.786207 328.320000
L118.179310 319.680000L133.572414 311.040000L148.965517 302.400000
L164.358621 293.760000L179.751724 285.120000L195.144828 276.480000
L210.537931 267.840000L225.931034 259.200000L241.324138 250.560000
L256.717241 241.920000L272.110345 233.280000L287.503448 224.640000
L302.896552 216.000000L318.289655 207.360000L333.682759 198.720000
L349.075862 190.080000L364.468966 181.440000L379.862069 172.800000
L395.255172 164.160000L410.648276 155.520000L426.041379 146.880000
L441.434483 138.240000L456.827586 129.600000L472.220690 120.960000
L487.613793 112.320000L503.006897 103.680000L518.400000 95.040000"/>
</g>
<g id="line2d3">
<path style="fill: none; stroke: #777777; stroke-width: 1.000000; stroke-linejoin: round; stroke-linecap: butt; stroke-dasharray: 1.000000,3.000000; stroke-dashoffset: 0.000000; opacity: 1.000000" clip-path="url(#p50431ccdcb28178602d99d9270004dde)" d="M72.000000 345.600000L87.393103 328.320000L102.786207 311.040000
L118.179310 293.760000L133.572414 276.480000L148.965517 259.200000
L164.358621 241.920000L179.751724 224.640000L195.144828 207.360000
L210.537931 190.080000L225.931034 172.800000L241.324138 155.520000
L256.717241 138.240000L272.110345 120.960000L287.503448 103.680000
L302.896552 86.400000L318.289655 69.120000L333.682759 51.840000
L349.075862 34.560000L364.468966 17.280000L379.862069 0.000000"/>
</g>
<g id="line2d4">
<path style="fill: none; stroke: #008000; stroke-width: 3.000000; stroke-linejoin: round; stroke-linecap: square;  opacity: 1.000000" clip-path="url(#p50431ccdcb28178602d99d9270004dde)" d="M72.000000 345.600000L87.393103 345.600000L102.786207 336.960000
L118.179310 321.840000L133.572414 319.680000L148.965517 314.928000
L164.358621 311.040000L179.751724 311.040000L195.144828 302.400000
L210.537931 293.760000L225.931034 285.120000L241.324138 285.120000
L256.717241 276.480000L272.110345 267.840000L287.503448 259.200000
L302.896552 259.200000L318.289655 250.560000L333.682759 250.560000
L349.075862 241.056000L364.468966 233.280000L379.862069 224.640000
L395.255172 224.640000L410.648276 207.360000L426.041379 198.720000
L441.434483 198.720000L456.827586 187.920000L472.220690 175.392000
L487.613793 172.800000L503.006897 164.160000L518.400000 146.880000"/>
</g>
<g id="line2d5">
<path style="fill: none; stroke: #000000; stroke-width: 1.000000; stroke-linejoin: round; stroke-linecap: butt; stroke-dasharray: 1.000000,3.000000; stroke-dashoffset: 0.000000; opacity: 1.000000" clip-path="url(#p50431ccdcb28178602d99d9270004dde)" d="M72.000000 345.600000L87.393103 336.960000L102.786207 328.320000
L118.179310 319.680000L133.572414 311.040000L148.965517 302.400000
L164.358621 293.760000L179.751724 285.120000L195.144828 276.480000
L210.537931 267.840000L225.931034 259.200000L241.324138 250.560000
L256.717241 241.920000L272.110345 233.280000L287.503448 224.640000
L302.896552 216.000000L318.289655 207.360000L333.682759 198.720000
L349.075862 190.080000L364.468966 181.440000L379.862069 172.800000
L395.255172 164.160000L410.648276 155.520000L426.041379 146.880000
L441.434483 138.240000L456.827586 129.600000L472.220690 120.960000
L487.613793 112.320000L503.006897 103.680000L518.400000 95.040000"/>
</g>
<g id="line2d6">
<path style="fill: none; stroke: #777777; stroke-width: 1.000000; stroke-linejoin: round; stroke-linecap: butt; stroke-dasharray: 1.000000,3.000000; stroke-dashoffset: 0.000000; opacity: 1.000000" clip-path="url(#p50431ccdcb28178602d99d9270004dde)" d="M72.000000 345.600000L87.393103 328.320000L102.786207 311.040000
L118.179310 293.760000L133.572414 276.480000L148.965517 259.200000
L164.358621 241.920000L179.751724 224.640000L195.144828 207.360000
L210.537931 190.080000L225.931034 172.800000L241.324138 155.520000
L256.717241 138.240000L272.110345 120.960000L287.503448 103.680000
L302.896552 86.400000L318.289655 69.120000L333.682759 51.840000
L349.075862 34.560000L364.468966 17.280000L379.862069 0.000000"/>
</g>
<g id="line2d7">
<path style="fill: none; stroke: #bfbf00; stroke-width: 3.000000; stroke-linejoin: round; stroke-linecap: square;  opacity: 1.000000" clip-path="url(#p50431ccdcb28178602d99d9270004dde)" d="M72.000000 362.880000L87.393103 362.880000L102.786207 345.600000
L118.179310 345.600000L133.572414 336.960000L148.965517 331.344000
L164.358621 328.320000L179.751724 319.680000L195.144828 319.680000
L210.537931 311.040000L225.931034 311.040000L241.324138 302.400000
L256.717241 293.760000L272.110345 288.576000L287.503448 285.120000
L302.896552 273.456000L318.289655 267.840000L333.682759 259.200000
L349.075862 250.560000L364.468966 241.920000L379.862069 233.280000
L395.255172 224.640000L410.648276 216.000000L426.041379 209.088000
L441.434483 198.720000L456.827586 190.080000L472.220690 181.440000
L487.613793 172.800000L503.006897 164.160000L518.400000 155.520000"/>
</g>
<g id="line2d8">
<path style="fill: none; stroke: #000000; stroke-width: 1.000000; stroke-linejoin: round; stroke-linecap: butt; stroke-dasharray: 1.000000,3.000000; stroke-dashoffset: 0.000000; opacity: 1.000000" clip-path="url(#p50431ccdcb28178602d99d9270004dde)" d="M72.000000 345.600000L87.393103 336.960000L102.786207 328.320000
L118.179310 319.680000L133.572414 311.040000L148.965517 302.400000
L164.358621 293.760000L179.751724 285.120000L195.144828 276.480000
L210.537931 267.840000L225.931034 259.200000L241.324138 250.560000
L256.717241 241.920000L272.110345 233.280000L287.503448 224.640000
L302.896552 216.000000L318.289655 207.360000L333.682759 198.720000
L349.075862 190.080000L364.468966 181.440000L379.862069 172.800000
L395.255172 164.160000L410.648276 155.520000L426.041379 146.880000
L441.434483 138.240000L456.827586 129.600000L472.220690 120.960000
L487.613793 112.320000L503.006897 103.680000L518.400000 95.040000"/>
</g>
<g id="line2d9">
<path style="fill: none; stroke: #777777; stroke-width: 1.000000; stroke-linejoin: round; stroke-linecap: butt; stroke-dasharray: 1.000000,3.000000; stroke-dashoffset: 0.000000; opacity: 1.000000" clip-path="url(#p50431ccdcb28178602d99d9270004dde)" d="M72.000000 345.600000L87.393103 328.320000L102.786207 311.040000
L118.179310 293.760000L133.572414 276.480000L148.965517 259.200000
L164.358621 241.920000L179.751724 224.640000L195.144828 207.360000
L210.537931 190.080000L225.931034 172.800000L241.324138 155.520000
L256.717241 138.240000L272.110345 120.960000L287.503448 103.680000
L302.896552 86.400000L318.289655 69.120000L333.682759 51.840000
L349.075862 34.560000L364.468966 17.280000L379.862069 0.000000"/>
</g>
<g id="line2d10">
<path style="fill: none; stroke: #bfbf00; stroke-width: 3.000000; stroke-linejoin: round; stroke-linecap: butt; stroke-dasharray: 6.000000,6.000000; stroke-dashoffset: 0.000000; opacity: 1.000000" clip-path="url(#p50431ccdcb28178602d99d9270004dde)" d="M72.000000 354.240000L87.393103 354.240000L102.786207 345.600000
L118.179310 336.960000L133.572414 328.320000L148.965517 326.592000
L164.358621 319.680000L179.751724 316.656000L195.144828 311.040000
L210.537931 302.400000L225.931034 293.760000L241.324138 290.736000
L256.717241 285.120000L272.110345 276.480000L287.503448 267.840000
L302.896552 259.200000L318.289655 250.560000L333.682759 241.920000
L349.075862 233.280000L364.468966 224.640000L379.862069 218.592000
L395.255172 207.360000L410.648276 198.720000L426.041379 190.080000
L441.434483 181.440000L456.827586 172.800000L472.220690 164.160000
L487.613793 155.520000L503.006897 146.880000L518.400000 129.600000"/>
</g>
<g id="line2d11">
<path style="fill: none; stroke: #000000; stroke-width: 1.000000; stroke-linejoin: round; stroke-linecap: butt; stroke-dasharray: 1.000000,3.000000; stroke-dashoffset: 0.000000; opacity: 1.000000" clip-path="url(#p50431ccdcb28178602d99d9270004dde)" d="M72.000000 345.600000L87.393103 336.960000L102.786207 328.320000
L118.179310 319.680000L133.572414 311.040000L148.965517 302.400000
L164.358621 293.760000L179.751724 285.120000L195.144828 276.480000
L210.537931 267.840000L225.931034 259.200000L241.324138 250.560000
L256.717241 241.920000L272.110345 233.280000L287.503448 224.640000
L302.896552 216.000000L318.289655 207.360000L333.682759 198.720000
L349.075862 190.080000L364.468966 181.440000L379.862069 172.800000
L395.255172 164.160000L410.648276 155.520000L426.041379 146.880000
L441.434483 138.240000L456.827586 129.600000L472.220690 120.960000
L487.613793 112.320000L503.006897 103.680000L518.400000 95.040000"/>
</g>
<g id="line2d12">
<path style="fill: none; stroke: #777777; stroke-width: 1.000000; stroke-linejoin: round; stroke-linecap: butt; stroke-dasharray: 1.000000,3.000000; stroke-dashoffset: 0.000000; opacity: 1.000000" clip-path="url(#p50431ccdcb28178602d99d9270004dde)" d="M72.000000 345.600000L87.393103 328.320000L102.786207 311.040000
L118.179310 293.760000L133.572414 276.480000L148.965517 259.200000
L164.358621 241.920000L179.751724 224.640000L195.144828 207.360000
L210.537931 190.080000L225.931034 172.800000L241.324138 155.520000
L256.717241 138.240000L272.110345 120.960000L287.503448 103.680000
L302.896552 86.400000L318.289655 69.120000L333.682759 51.840000
L349.075862 34.560000L364.468966 17.280000L379.862069 0.000000"/>
</g>
<g id="line2d13">
<path style="fill: none; stroke: #0000ff; stroke-width: 3.000000; stroke-linejoin: round; stroke-linecap: butt; stroke-dasharray: 6.000000,6.000000; stroke-dashoffset: 0.000000; opacity: 1.000000" clip-path="url(#p50431ccdcb28178602d99d9270004dde)" d="M72.000000 388.800000L87.393103 380.160000L102.786207 371.520000
L118.179310 371.520000L133.572414 371.520000L148.965517 362.880000
L164.358621 362.880000L179.751724 362.880000L195.144828 362.880000
L210.537931 361.152000L225.931034 354.240000L241.324138 354.240000
L256.717241 354.240000L272.110345 354.240000L287.503448 345.600000
L302.896552 345.600000L318.289655 345.600000L333.682759 345.600000
L349.075862 345.600000L364.468966 345.600000L379.862069 345.600000
L395.255172 345.600000L410.648276 336.960000L426.041379 328.320000
L441.434483 319.680000L456.827586 311.040000L472.220690 302.400000
L487.613793 293.760000L503.006897 285.120000L518.400000 276.480000"/>
</g>
<g id="line2d14">
<path style="fill: none; stroke: #000000; stroke-width: 1.000000; stroke-linejoin: round; stroke-linecap: butt; stroke-dasharray: 1.000000,3.000000; stroke-dashoffset: 0.000000; opacity: 1.000000" clip-path="url(#p50431ccdcb28178602d99d9270004dde)" d="M72.000000 345.600000L87.393103 336.960000L102.786207 328.320000
L118.179310 319.680000L133.572414 311.040000L148.965517 302.400000
L164.358621 293.760000L179.751724 285.120000L195.144828 276.480000
L210.537931 267.840000L225.931034 259.200000L241.324138 250.560000
L256.717241 241.920000L272.110345 233.280000L287.503448 224.640000
L302.896552 216.000000L318.289655 207.360000L333.682759 198.720000
L349.075862 190.080000L364.468966 181.440000L379.862069 172.800000
L395.255172 164.160000L410.648276 155.520000L426.041379 146.880000
L441.434483 138.240000L456.827586 129.600000L472.220690 120.960000
L487.613793 112.320000L503.006897 103.680000L518.400000 95.040000"/>
</g>
<g id="line2d15">
<path style="fill: none; stroke: #777777; stroke-width: 1.000000; stroke-linejoin: round; stroke-linecap: butt; stroke-dasharray: 1.000000,3.000000; stroke-dashoffset: 0.000000; opacity: 1.000000" clip-path="url(#p50431ccdcb28178602d99d9270004dde)" d="M72.000000 345.600000L87.393103 328.320000L102.786207 311.040000
L118.179310 293.760000L133.572414 276.480000L148.965517 259.200000
L164.358621 241.920000L179.751724 224.640000L195.144828 207.360000
L210.537931 190.080000L225.931034 172.800000L241.324138 155.520000
L256.717241 138.240000L272.110345 120.960000L287.503448 103.680000
L302.896552 86.400000L318.289655 69.120000L333.682759 51.840000
L349.075862 34.560000L364.468966 17.280000L379.862069 0.000000"/>
</g>
<g id="line2d16">
<path style="fill: none; stroke: #0000ff; stroke-width: 3.000000; stroke-linejoin: round; stroke-linecap: square;  opacity: 1.000000" clip-path="url(#p50431ccdcb28178602d99d9270004dde)" d="M72.000000 388.800000L87.393103 380.160000L102.786207 371.520000
L118.179310 362.880000L133.572414 354.240000L148.965517 345.600000
L164.358621 336.960000L179.751724 325.296000L195.144828 319.680000
L210.537931 311.040000L225.931034 296.784000L241.324138 293.760000
L256.717241 285.120000L272.110345 276.480000L287.503448 267.840000
L302.896552 259.200000L318.289655 250.560000L333.682759 241.920000
L349.075862 233.280000L364.468966 224.640000L379.862069 216.000000
L395.255172 207.360000L410.648276 198.720000L426.041379 184.032000
L441.434483 172.800000L456.827586 164.160000L472.220690 155.520000
L487.613793 146.880000L503.006897 138.240000L518.400000 129.600000"/>
</g>
<g id="line2d17">
<path style="fill: none; stroke: #000000; stroke-width: 1.000000; stroke-linejoin: round; stroke-linecap: butt; stroke-dasharray: 1.000000,3.000000; stroke-dashoffset: 0.000000; opacity: 1.000000" clip-path="url(#p50431ccdcb28178602d99d9270004dde)" d="M72.000000 345.600000L87.393103 336.960000L102.786207 328.320000
L118.179310 319.680000L133.572414 311.040000L148.965517 302.400000
L164.358621 293.760000L179.751724 285.120000L195.144828 276.480000
L210.537931 267.840000L225.931034 259.200000L241.324138 250.560000
L256.717241 241.920000L272.110345 233.280000L287.503448 224.640000
L302.896552 216.000000L318.289655 207.360000L333.682759 198.720000
L349.075862 190.080000L364.468966 181.440000L379.862069 172.800000
L395.255172 164.160000L410.648276 155.520000L426.041379 146.880000
L441.434483 138.240000L456.827586 129.600000L472.220690 120.960000
L487.613793 112.320000L503.006897 103.680000L518.400000 95.040000"/>
</g>
<g id="line2d18">
<path style="fill: none; stroke: #777777; stroke-width: 1.000000; stroke-linejoin: round; stroke-linecap: butt; stroke-dasharray: 1.000000,3.000000; stroke-dashoffset: 0.000000; opacity: 1.000000" clip-path="url(#p50431ccdcb28178602d99d9270004dde)" d="M72.000000 345.600000L87.393103 328.320000L102.786207 311.040000
L118.179310 293.760000L133.572414 276.480000L148.965517 259.200000
L164.358621 241.920000L179.751724 224.640000L195.144828 207.360000
L210.537931 190.080000L225.931034 172.800000L241.324138 155.520000
L256.717241 138.240000L272.110345 120.960000L287.503448 103.680000
L302.896552 86.400000L318.289655 69.120000L333.682759 51.840000
L349.075862 34.560000L364.468966 17.280000L379.862069 0.000000"/>
</g>
<g id="matplotlib.axis1">
<g id="xtick1">
<g id="line2d19">
<path style="fill: none; stroke: #000000; stroke-width: 0.500000; stroke-linejoin: round; stroke-linecap: butt; stroke-dasharray: 1.000000,3.000000; stroke-dashoffset: 0.000000; opacity: 1.000000" clip-path="url(#p50431ccdcb28178602d99d9270004dde)" d="M72.000000 388.800000L72.000000 43.200000"/>
</g>
<g id="line2d20">
<defs><path id="m30e32995789d870ad79a2e54c91cf9c6" d="M0.000000 0.000000L0.000000 -4.000000"/></defs>
<g ><use style="fill: none; stroke: #000000; stroke-width: 0.500000; stroke-linejoin: round; stroke-linecap: butt;  opacity: 1.000000" xlink:href="#m30e32995789d870ad79a2e54c91cf9c6" x="72.000000" y="388.800000"/>
</g></g>
<g id="line2d21">
<defs><path id="m9281cae24120827b11d5ea8a7ad3e96b" d="M0.000000 0.000000L0.000000 4.000000"/></defs>
<g ><use style="fill: none; stroke: #000000; stroke-width: 0.500000; stroke-linejoin: round; stroke-linecap: butt;  opacity: 1.000000" xlink:href="#m9281cae24120827b11d5ea8a7ad3e96b" x="72.000000" y="43.200000"/>
</g></g>
<g id="text1">
<defs>
<path id="c_7a2040fe3b94fcd41d0a72c84e93b115" d="M31.781250 -66.406250q-7.609375 0.000000 -11.453125 7.500000q-3.828125 7.484375 -3.828125 22.531250q0.000000 14.984375 3.828125 22.484375q3.843750 7.500000 11.453125 7.500000q7.671875 0.000000 11.500000 -7.500000q3.843750 -7.500000 3.843750 -22.484375q0.000000 -15.046875 -3.843750 -22.531250q-3.828125 -7.500000 -11.500000 -7.500000M31.781250 -74.218750q12.265625 0.000000 18.734375 9.703125q6.468750 9.687500 6.468750 28.140625q0.000000 18.406250 -6.468750 28.109375q-6.468750 9.687500 -18.734375 9.687500q-12.250000 0.000000 -18.718750 -9.687500q-6.468750 -9.703125 -6.468750 -28.109375q0.000000 -18.453125 6.468750 -28.140625q6.468750 -9.703125 18.718750 -9.703125"/>
</defs>
<g style="fill: #000000; opacity: 1.000000" transform="translate(68.976562,401.706250)scale(0.120000)">
<use xlink:href="#c_7a2040fe3b94fcd41d0a72c84e93b115"/>
</g>
</g>
</g>
<g id="xtick2">
<g id="line2d22">
<path style="fill: none; stroke: #000000; stroke-width: 0.500000; stroke-linejoin: round; stroke-linecap: butt; stroke-dasharray: 1.000000,3.000000; stroke-dashoffset: 0.000000; opacity: 1.000000" clip-path="url(#p50431ccdcb28178602d99d9270004dde)" d="M148.965517 388.800000L148.965517 43.200000"/>
</g>
<g id="line2d23">
<g ><use style="fill: none; stroke: #000000; stroke-width: 0.500000; stroke-linejoin: round; stroke-linecap: butt;  opacity: 1.000000" xlink:href="#m30e32995789d870ad79a2e54c91cf9c6" x="148.965517" y="388.800000"/>
</g></g>
<g id="line2d24">
<g ><use style="fill: none; stroke: #000000; stroke-width: 0.500000; stroke-linejoin: round; stroke-linecap: butt;  opacity: 1.000000" xlink:href="#m9281cae24120827b11d5ea8a7ad3e96b" x="148.965517" y="43.200000"/>
</g></g>
<g id="text2">
<defs>
<path id="c_1260a2df50f305f3db244e29828f968e" d="M10.796875 -72.906250l38.718750 0.000000l0.000000 8.312500l-29.687500 0.000000l0.000000 17.859375q2.140625 -0.734375 4.281250 -1.093750q2.156250 -0.359375 4.312500 -0.359375q12.203125 0.000000 19.328125 6.687500q7.140625 6.687500 7.140625 18.109375q0.000000 11.765625 -7.328125 18.296875q-7.328125 6.515625 -20.656250 6.515625q-4.593750 0.000000 -9.359375 -0.781250q-4.750000 -0.781250 -9.828125 -2.343750l0.000000 -9.921875q4.390625 2.390625 9.078125 3.562500q4.687500 1.171875 9.906250 1.171875q8.453125 0.000000 13.375000 -4.437500q4.937500 -4.437500 4.937500 -12.062500q0.000000 -7.609375 -4.937500 -12.046875q-4.921875 -4.453125 -13.375000 -4.453125q-3.953125 0.000000 -7.890625 0.875000q-3.921875 0.875000 -8.015625 2.734375z"/>
</defs>
<g style="fill: #000000; opacity: 1.000000" transform="translate(146.129580,401.550000)scale(0.120000)">
<use xlink:href="#c_1260a2df50f305f3db244e29828f968e"/>
</g>
</g>
</g>
<g id="xtick3">
<g id="line2d25">
<path style="fill: none; stroke: #000000; stroke-width: 0.500000; stroke-linejoin: round; stroke-linecap: butt; stroke-dasharray: 1.000000,3.000000; stroke-dashoffset: 0.000000; opacity: 1.000000" clip-path="url(#p50431ccdcb28178602d99d9270004dde)" d="M225.931034 388.800000L225.931034 43.200000"/>
</g>
<g id="line2d26">
<g ><use style="fill: none; stroke: #000000; stroke-width: 0.500000; stroke-linejoin: round; stroke-linecap: butt;  opacity: 1.000000" xlink:href="#m30e32995789d870ad79a2e54c91cf9c6" x="225.931034" y="388.800000"/>
</g></g>
<g id="line2d27">
<g ><use style="fill: none; stroke: #000000; stroke-width: 0.500000; stroke-linejoin: round; stroke-linecap: butt;  opacity: 1.000000" xlink:href="#m9281cae24120827b11d5ea8a7ad3e96b" x="225.931034" y="43.200000"/>
</g></g>
<g id="text3">
<defs>
<path id="c_42baa63129a918535c52adb20d687ea7" d="M12.406250 -8.296875l16.109375 0.000000l0.000000 -55.625000l-17.531250 3.515625l0.000000 -8.984375l17.437500 -3.515625l9.859375 0.000000l0.000000 64.609375l16.109375 0.000000l0.000000 8.296875l-41.984375 0.000000z"/>
</defs>
<g style="fill: #000000; opacity: 1.000000" transform="translate(219.345097,401.706250)scale(0.120000)">
<use xlink:href="#c_42baa63129a918535c52adb20d687ea7"/>
<use xlink:href="#c_7a2040fe3b94fcd41d0a72c84e93b115" x="63.623047"/>
</g>
</g>
</g>
<g id="xtick4">
<g id="line2d28">
<path style="fill: none; stroke: #000000; stroke-width: 0.500000; stroke-linejoin: round; stroke-linecap: butt; stroke-dasharray: 1.000000,3.000000; stroke-dashoffset: 0.000000; opacity: 1.000000" clip-path="url(#p50431ccdcb28178602d99d9270004dde)" d="M302.896552 388.800000L302.896552 43.200000"/>
</g>
<g id="line2d29">
<g ><use style="fill: none; stroke: #000000; stroke-width: 0.500000; stroke-linejoin: round; stroke-linecap: butt;  opacity: 1.000000" xlink:href="#m30e32995789d870ad79a2e54c91cf9c6" x="302.896552" y="388.800000"/>
</g></g>
<g id="line2d30">
<g ><use style="fill: none; stroke: #000000; stroke-width: 0.500000; stroke-linejoin: round; stroke-linecap: butt;  opacity: 1.000000" xlink:href="#m9281cae24120827b11d5ea8a7ad3e96b" x="302.896552" y="43.200000"/>
</g></g>
<g id="text4">
<g style="fill: #000000; opacity: 1.000000" transform="translate(296.435614,401.550000)scale(0.120000)">
<use xlink:href="#c_42baa63129a918535c52adb20d687ea7"/>
<use xlink:href="#c_1260a2df50f305f3db244e29828f968e" x="63.623047"/>
</g>
</g>
</g>
<g id="xtick5">
<g id="line2d31">
<path style="fill: none; stroke: #000000; stroke-width: 0.500000; stroke-linejoin: round; stroke-linecap: butt; stroke-dasharray: 1.000000,3.000000; stroke-dashoffset: 0.000000; opacity: 1.000000" clip-path="url(#p50431ccdcb28178602d99d9270004dde)" d="M379.862069 388.800000L379.862069 43.200000"/>
</g>
<g id="line2d32">
<g ><use style="fill: none; stroke: #000000; stroke-width: 0.500000; stroke-linejoin: round; stroke-linecap: butt;  opacity: 1.000000" xlink:href="#m30e32995789d870ad79a2e54c91cf9c6" x="379.862069" y="388.800000"/>
</g></g>
<g id="line2d33">
<g ><use style="fill: none; stroke: #000000; stroke-width: 0.500000; stroke-linejoin: round; stroke-linecap: butt;  opacity: 1.000000" xlink:href="#m9281cae24120827b11d5ea8a7ad3e96b" x="379.862069" y="43.200000"/>
</g></g>
<g id="text5">
<defs>
<path id="c_ed3f3ed3ebfbd18bcb9c012009a68ad1" d="M19.187500 -8.296875l34.421875 0.000000l0.000000 8.296875l-46.281250 0.000000l0.000000 -8.296875q5.609375 -5.812500 15.296875 -15.593750q9.703125 -9.796875 12.187500 -12.640625q4.734375 -5.312500 6.609375 -9.000000q1.890625 -3.687500 1.890625 -7.250000q0.000000 -5.812500 -4.078125 -9.468750q-4.078125 -3.671875 -10.625000 -3.671875q-4.640625 0.000000 -9.796875 1.609375q-5.140625 1.609375 -11.000000 4.890625l0.000000 -9.968750q5.953125 -2.390625 11.125000 -3.609375q5.187500 -1.218750 9.484375 -1.218750q11.328125 0.000000 18.062500 5.671875q6.734375 5.656250 6.734375 15.125000q0.000000 4.500000 -1.687500 8.531250q-1.671875 4.015625 -6.125000 9.484375q-1.218750 1.421875 -7.765625 8.187500q-6.531250 6.765625 -18.453125 18.921875"/>
</defs>
<g style="fill: #000000; opacity: 1.000000" transform="translate(373.057381,401.706250)scale(0.120000)">
<use xlink:href="#c_ed3f3ed3ebfbd18bcb9c012009a68ad1"/>
<use xlink:href="#c_7a2040fe3b94fcd41d0a72c84e93b115" x="63.623047"/>
</g>
</g>
</g>
<g id="xtick6">
<g id="line2d34">
<path style="fill: none; stroke: #000000; stroke-width: 0.500000; stroke-linejoin: round; stroke-linecap: butt; stroke-dasharray: 1.000000,3.000000; stroke-dashoffset: 0.000000; opacity: 1.000000" clip-path="url(#p50431ccdcb28178602d99d9270004dde)" d="M456.827586 388.800000L456.827586 43.200000"/>
</g>
<g id="line2d35">
<g ><use style="fill: none; stroke: #000000; stroke-width: 0.500000; stroke-linejoin: round; stroke-linecap: butt;  opacity: 1.000000" xlink:href="#m30e32995789d870ad79a2e54c91cf9c6" x="456.827586" y="388.800000"/>
</g></g>
<g id="line2d36">
<g ><use style="fill: none; stroke: #000000; stroke-width: 0.500000; stroke-linejoin: round; stroke-linecap: butt;  opacity: 1.000000" xlink:href="#m9281cae24120827b11d5ea8a7ad3e96b" x="456.827586" y="43.200000"/>
</g></g>
<g id="text6">
<g style="fill: #000000; opacity: 1.000000" transform="translate(450.147899,401.706250)scale(0.120000)">
<use xlink:href="#c_ed3f3ed3ebfbd18bcb9c012009a68ad1"/>
<use xlink:href="#c_1260a2df50f305f3db244e29828f968e" x="63.623047"/>
</g>
</g>
</g>
<g id="text7">
<defs>
<path id="c_a469f8ee191679fe73f3b765bd271597" d="M64.406250 -67.281250l0.000000 10.390625q-4.984375 -4.640625 -10.625000 -6.921875q-5.640625 -2.296875 -11.984375 -2.296875q-12.500000 0.000000 -19.140625 7.640625q-6.640625 7.640625 -6.640625 22.093750q0.000000 14.406250 6.640625 22.046875q6.640625 7.640625 19.140625 7.640625q6.343750 0.000000 11.984375 -2.296875q5.640625 -2.296875 10.625000 -6.937500l0.000000 10.312500q-5.171875 3.515625 -10.968750 5.281250q-5.781250 1.750000 -12.218750 1.750000q-16.562500 0.000000 -26.093750 -10.125000q-9.515625 -10.140625 -9.515625 -27.671875q0.000000 -17.578125 9.515625 -27.703125q9.531250 -10.140625 26.093750 -10.140625q6.531250 0.000000 12.312500 1.734375q5.796875 1.734375 10.875000 5.203125"/>
<path id="c_5099edb83619131346ae654950954dea" d="M9.421875 -75.984375l8.984375 0.000000l0.000000 75.984375l-8.984375 0.000000z"/>
<path id="c_6a63bda47b2f3da1cec6aadd80692cfe" d="M9.421875 -54.687500l8.984375 0.000000l0.000000 54.687500l-8.984375 0.000000zM9.421875 -75.984375l8.984375 0.000000l0.000000 11.390625l-8.984375 0.000000z"/>
<path id="c_d650c37394b681142a10dfc54356d478" d="M48.781250 -52.593750l0.000000 8.406250q-3.812500 -2.109375 -7.640625 -3.156250q-3.828125 -1.046875 -7.734375 -1.046875q-8.750000 0.000000 -13.593750 5.546875q-4.828125 5.531250 -4.828125 15.546875q0.000000 10.015625 4.828125 15.562500q4.843750 5.531250 13.593750 5.531250q3.906250 0.000000 7.734375 -1.046875q3.828125 -1.046875 7.640625 -3.156250l0.000000 8.312500q-3.765625 1.750000 -7.796875 2.625000q-4.015625 0.890625 -8.562500 0.890625q-12.359375 0.000000 -19.640625 -7.765625q-7.265625 -7.765625 -7.265625 -20.953125q0.000000 -13.375000 7.343750 -21.031250q7.359375 -7.671875 20.156250 -7.671875q4.140625 0.000000 8.093750 0.859375q3.953125 0.843750 7.671875 2.546875"/>
<path id="c_dcb78ab3124be785176d70a27dde1356" d="M9.078125 -75.984375l9.031250 0.000000l0.000000 44.875000l26.812500 -23.578125l11.468750 0.000000l-29.000000 25.578125l30.234375 29.109375l-11.718750 0.000000l-27.796875 -26.703125l0.000000 26.703125l-9.031250 0.000000z"/>
<path id="c_8e0810ad13fe20a2a87a2619799b154d" d="M44.281250 -53.078125l0.000000 8.500000q-3.796875 -1.953125 -7.906250 -2.921875q-4.093750 -0.984375 -8.500000 -0.984375q-6.687500 0.000000 -10.031250 2.046875q-3.343750 2.046875 -3.343750 6.156250q0.000000 3.125000 2.390625 4.906250q2.390625 1.781250 9.625000 3.390625l3.078125 0.687500q9.562500 2.046875 13.593750 5.781250q4.031250 3.734375 4.031250 10.421875q0.000000 7.625000 -6.031250 12.078125q-6.031250 4.437500 -16.578125 4.437500q-4.390625 0.000000 -9.156250 -0.859375q-4.765625 -0.859375 -10.031250 -2.562500l0.000000 -9.281250q4.984375 2.593750 9.812500 3.890625q4.828125 1.281250 9.578125 1.281250q6.343750 0.000000 9.750000 -2.171875q3.421875 -2.171875 3.421875 -6.125000q0.000000 -3.656250 -2.468750 -5.609375q-2.453125 -1.953125 -10.812500 -3.765625l-3.125000 -0.734375q-8.343750 -1.750000 -12.062500 -5.390625q-3.703125 -3.640625 -3.703125 -9.984375q0.000000 -7.718750 5.468750 -11.906250q5.468750 -4.203125 15.531250 -4.203125q4.968750 0.000000 9.359375 0.734375q4.406250 0.718750 8.109375 2.187500"/>
</defs>
<g style="fill: #000000; opacity: 1.000000" transform="translate(278.410937,416.003125)scale(0.120000)">
<use xlink:href="#c_a469f8ee191679fe73f3b765bd271597"/>
<use xlink:href="#c_5099edb83619131346ae654950954dea" x="69.824219"/>
<use xlink:href="#c_6a63bda47b2f3da1cec6aadd80692cfe" x="97.607422"/>
<use xlink:href="#c_d650c37394b681142a10dfc54356d478" x="125.390625"/>
<use xlink:href="#c_dcb78ab3124be785176d70a27dde1356" x="180.371094"/>
<use xlink:href="#c_8e0810ad13fe20a2a87a2619799b154d" x="238.281250"/>
</g>
</g>
</g>
<g id="matplotlib.axis2">
<g id="ytick1">
<g id="line2d37">
<path style="fill: none; stroke: #000000; stroke-width: 0.500000; stroke-linejoin: round; stroke-linecap: butt; stroke-dasharray: 1.000000,3.000000; stroke-dashoffset: 0.000000; opacity: 1.000000" clip-path="url(#p50431ccdcb28178602d99d9270004dde)" d="M72.000000 388.800000L518.400000 388.800000"/>
</g>
<g id="line2d38">
<defs><path id="m3400efa6b1638b3fea9e19e898273957" d="M0.000000 0.000000L4.000000 0.000000"/></defs>
<g ><use style="fill: none; stroke: #000000; stroke-width: 0.500000; stroke-linejoin: round; stroke-linecap: butt;  opacity: 1.000000" xlink:href="#m3400efa6b1638b3fea9e19e898273957" x="72.000000" y="388.800000"/>
</g></g>
<g id="line2d39">
<defs><path id="m20b58b2501143cb5e0a5e8f1ef6f1643" d="M0.000000 0.000000L-4.000000 0.000000"/></defs>
<g ><use style="fill: none; stroke: #000000; stroke-width: 0.500000; stroke-linejoin: round; stroke-linecap: butt;  opacity: 1.000000" xlink:href="#m20b58b2501143cb5e0a5e8f1ef6f1643" x="518.400000" y="388.800000"/>
</g></g>
<g id="text8">
<g style="fill: #000000; opacity: 1.000000" transform="translate(61.953125,393.167188)scale(0.120000)">
<use xlink:href="#c_7a2040fe3b94fcd41d0a72c84e93b115"/>
</g>
</g>
</g>
<g id="ytick2">
<g id="line2d40">
<path style="fill: none; stroke: #000000; stroke-width: 0.500000; stroke-linejoin: round; stroke-linecap: butt; stroke-dasharray: 1.000000,3.000000; stroke-dashoffset: 0.000000; opacity: 1.000000" clip-path="url(#p50431ccdcb28178602d99d9270004dde)" d="M72.000000 345.600000L518.400000 345.600000"/>
</g>
<g id="line2d41">
<g ><use style="fill: none; stroke: #000000; stroke-width: 0.500000; stroke-linejoin: round; stroke-linecap: butt;  opacity: 1.000000" xlink:href="#m3400efa6b1638b3fea9e19e898273957" x="72.000000" y="345.600000"/>
</g></g>
<g id="line2d42">
<g ><use style="fill: none; stroke: #000000; stroke-width: 0.500000; stroke-linejoin: round; stroke-linecap: butt;  opacity: 1.000000" xlink:href="#m20b58b2501143cb5e0a5e8f1ef6f1643" x="518.400000" y="345.600000"/>
</g></g>
<g id="text9">
<g style="fill: #000000; opacity: 1.000000" transform="translate(62.328125,349.889063)scale(0.120000)">
<use xlink:href="#c_1260a2df50f305f3db244e29828f968e"/>
</g>
</g>
</g>
<g id="ytick3">
<g id="line2d43">
<path style="fill: none; stroke: #000000; stroke-width: 0.500000; stroke-linejoin: round; stroke-linecap: butt; stroke-dasharray: 1.000000,3.000000; stroke-dashoffset: 0.000000; opacity: 1.000000" clip-path="url(#p50431ccdcb28178602d99d9270004dde)" d="M72.000000 302.400000L518.400000 302.400000"/>
</g>
<g id="line2d44">
<g ><use style="fill: none; stroke: #000000; stroke-width: 0.500000; stroke-linejoin: round; stroke-linecap: butt;  opacity: 1.000000" xlink:href="#m3400efa6b1638b3fea9e19e898273957" x="72.000000" y="302.400000"/>
</g></g>
<g id="line2d45">
<g ><use style="fill: none; stroke: #000000; stroke-width: 0.500000; stroke-linejoin: round; stroke-linecap: butt;  opacity: 1.000000" xlink:href="#m20b58b2501143cb5e0a5e8f1ef6f1643" x="518.400000" y="302.400000"/>
</g></g>
<g id="text10">
<g style="fill: #000000; opacity: 1.000000" transform="translate(54.828125,306.767187)scale(0.120000)">
<use xlink:href="#c_42baa63129a918535c52adb20d687ea7"/>
<use xlink:href="#c_7a2040fe3b94fcd41d0a72c84e93b115" x="63.623047"/>
</g>
</g>
</g>
<g id="ytick4">
<g id="line2d46">
<path style="fill: none; stroke: #000000; stroke-width: 0.500000; stroke-linejoin: round; stroke-linecap: butt; stroke-dasharray: 1.000000,3.000000; stroke-dashoffset: 0.000000; opacity: 1.000000" clip-path="url(#p50431ccdcb28178602d99d9270004dde)" d="M72.000000 259.200000L518.400000 259.200000"/>
</g>
<g id="line2d47">
<g ><use style="fill: none; stroke: #000000; stroke-width: 0.500000; stroke-linejoin: round; stroke-linecap: butt;  opacity: 1.000000" xlink:href="#m3400efa6b1638b3fea9e19e898273957" x="72.000000" y="259.200000"/>
</g></g>
<g id="line2d48">
<g ><use style="fill: none; stroke: #000000; stroke-width: 0.500000; stroke-linejoin: round; stroke-linecap: butt;  opacity: 1.000000" xlink:href="#m20b58b2501143cb5e0a5e8f1ef6f1643" x="518.400000" y="259.200000"/>
</g></g>
<g id="text11">
<g style="fill: #000000; opacity: 1.000000" transform="translate(55.078125,263.489062)scale(0.120000)">
<use xlink:href="#c_42baa63129a918535c52adb20d687ea7"/>
<use xlink:href="#c_1260a2df50f305f3db244e29828f968e" x="63.623047"/>
</g>
</g>
</g>
<g id="ytick5">
<g id="line2d49">
<path style="fill: none; stroke: #000000; stroke-width: 0.500000; stroke-linejoin: round; stroke-linecap: butt; stroke-dasharray: 1.000000,3.000000; stroke-dashoffset: 0.000000; opacity: 1.000000" clip-path="url(#p50431ccdcb28178602d99d9270004dde)" d="M72.000000 216.000000L518.400000 216.000000"/>
</g>
<g id="line2d50">
<g ><use style="fill: none; stroke: #000000; stroke-width: 0.500000; stroke-linejoin: round; stroke-linecap: butt;  opacity: 1.000000" xlink:href="#m3400efa6b1638b3fea9e19e898273957" x="72.000000" y="216.000000"/>
</g></g>
<g id="line2d51">
<g ><use style="fill: none; stroke: #000000; stroke-width: 0.500000; stroke-linejoin: round; stroke-linecap: butt;  opacity: 1.000000" xlink:href="#m20b58b2501143cb5e0a5e8f1ef6f1643" x="518.400000" y="216.000000"/>
</g></g>
<g id="text12">
<g style="fill: #000000; opacity: 1.000000" transform="translate(54.390625,220.367188)scale(0.120000)">
<use xlink:href="#c_ed3f3ed3ebfbd18bcb9c012009a68ad1"/>
<use xlink:href="#c_7a2040fe3b94fcd41d0a72c84e93b115" x="63.623047"/>
</g>
</g>
</g>
<g id="ytick6">
<g id="line2d52">
<path style="fill: none; stroke: #000000; stroke-width: 0.500000; stroke-linejoin: round; stroke-linecap: butt; stroke-dasharray: 1.000000,3.000000; stroke-dashoffset: 0.000000; opacity: 1.000000" clip-path="url(#p50431ccdcb28178602d99d9270004dde)" d="M72.000000 172.800000L518.400000 172.800000"/>
</g>
<g id="line2d53">
<g ><use style="fill: none; stroke: #000000; stroke-width: 0.500000; stroke-linejoin: round; stroke-linecap: butt;  opacity: 1.000000" xlink:href="#m3400efa6b1638b3fea9e19e898273957" x="72.000000" y="172.800000"/>
</g></g>
<g id="line2d54">
<g ><use style="fill: none; stroke: #000000; stroke-width: 0.500000; stroke-linejoin: round; stroke-linecap: butt;  opacity: 1.000000" xlink:href="#m20b58b2501143cb5e0a5e8f1ef6f1643" x="518.400000" y="172.800000"/>
</g></g>
<g id="text13">
<g style="fill: #000000; opacity: 1.000000" transform="translate(54.640625,177.167188)scale(0.120000)">
<use xlink:href="#c_ed3f3ed3ebfbd18bcb9c012009a68ad1"/>
<use xlink:href="#c_1260a2df50f305f3db244e29828f968e" x="63.623047"/>
</g>
</g>
</g>
<g id="ytick7">
<g id="line2d55">
<path style="fill: none; stroke: #000000; stroke-width: 0.500000; stroke-linejoin: round; stroke-linecap: butt; stroke-dasharray: 1.000000,3.000000; stroke-dashoffset: 0.000000; opacity: 1.000000" clip-path="url(#p50431ccdcb28178602d99d9270004dde)" d="M72.000000 129.600000L518.400000 129.600000"/>
</g>
<g id="line2d56">
<g ><use style="fill: none; stroke: #000000; stroke-width: 0.500000; stroke-linejoin: round; stroke-linecap: butt;  opacity: 1.000000" xlink:href="#m3400efa6b1638b3fea9e19e898273957" x="72.000000" y="129.600000"/>
</g></g>
<g id="line2d57">
<g ><use style="fill: none; stroke: #000000; stroke-width: 0.500000; stroke-linejoin: round; stroke-linecap: butt;  opacity: 1.000000" xlink:href="#m20b58b2501143cb5e0a5e8f1ef6f1643" x="518.400000" y="129.600000"/>
</g></g>
<g id="text14">
<defs>
<path id="c_3dcfa38a02242cb63ec6726c6e70be7a" d="M40.578125 -39.312500q7.078125 1.515625 11.046875 6.312500q3.984375 4.781250 3.984375 11.812500q0.000000 10.781250 -7.421875 16.703125q-7.421875 5.906250 -21.093750 5.906250q-4.578125 0.000000 -9.437500 -0.906250q-4.859375 -0.906250 -10.031250 -2.718750l0.000000 -9.515625q4.093750 2.390625 8.968750 3.609375q4.890625 1.218750 10.218750 1.218750q9.265625 0.000000 14.125000 -3.656250q4.859375 -3.656250 4.859375 -10.640625q0.000000 -6.453125 -4.515625 -10.078125q-4.515625 -3.640625 -12.562500 -3.640625l-8.500000 0.000000l0.000000 -8.109375l8.890625 0.000000q7.265625 0.000000 11.125000 -2.906250q3.859375 -2.906250 3.859375 -8.375000q0.000000 -5.609375 -3.984375 -8.609375q-3.968750 -3.015625 -11.390625 -3.015625q-4.062500 0.000000 -8.703125 0.890625q-4.640625 0.875000 -10.203125 2.718750l0.000000 -8.781250q5.625000 -1.562500 10.531250 -2.343750q4.906250 -0.781250 9.250000 -0.781250q11.234375 0.000000 17.765625 5.109375q6.546875 5.093750 6.546875 13.781250q0.000000 6.062500 -3.468750 10.234375q-3.468750 4.171875 -9.859375 5.781250"/>
</defs>
<g style="fill: #000000; opacity: 1.000000" transform="translate(54.437500,133.967188)scale(0.120000)">
<use xlink:href="#c_3dcfa38a02242cb63ec6726c6e70be7a"/>
<use xlink:href="#c_7a2040fe3b94fcd41d0a72c84e93b115" x="63.623047"/>
</g>
</g>
</g>
<g id="ytick8">
<g id="line2d58">
<path style="fill: none; stroke: #000000; stroke-width: 0.500000; stroke-linejoin: round; stroke-linecap: butt; stroke-dasharray: 1.000000,3.000000; stroke-dashoffset: 0.000000; opacity: 1.000000" clip-path="url(#p50431ccdcb28178602d99d9270004dde)" d="M72.000000 86.400000L518.400000 86.400000"/>
</g>
<g id="line2d59">
<g ><use style="fill: none; stroke: #000000; stroke-width: 0.500000; stroke-linejoin: round; stroke-linecap: butt;  opacity: 1.000000" xlink:href="#m3400efa6b1638b3fea9e19e898273957" x="72.000000" y="86.400000"/>
</g></g>
<g id="line2d60">
<g ><use style="fill: none; stroke: #000000; stroke-width: 0.500000; stroke-linejoin: round; stroke-linecap: butt;  opacity: 1.000000" xlink:href="#m20b58b2501143cb5e0a5e8f1ef6f1643" x="518.400000" y="86.400000"/>
</g></g>
<g id="text15">
<g style="fill: #000000; opacity: 1.000000" transform="translate(54.687500,90.767187)scale(0.120000)">
<use xlink:href="#c_3dcfa38a02242cb63ec6726c6e70be7a"/>
<use xlink:href="#c_1260a2df50f305f3db244e29828f968e" x="63.623047"/>
</g>
</g>
</g>
<g id="ytick9">
<g id="line2d61">
<path style="fill: none; stroke: #000000; stroke-width: 0.500000; stroke-linejoin: round; stroke-linecap: butt; stroke-dasharray: 1.000000,3.000000; stroke-dashoffset: 0.000000; opacity: 1.000000" clip-path="url(#p50431ccdcb28178602d99d9270004dde)" d="M72.000000 43.200000L518.400000 43.200000"/>
</g>
<g id="line2d62">
<g ><use style="fill: none; stroke: #000000; stroke-width: 0.500000; stroke-linejoin: round; stroke-linecap: butt;  opacity: 1.000000" xlink:href="#m3400efa6b1638b3fea9e19e898273957" x="72.000000" y="43.200000"/>
</g></g>
<g id="line2d63">
<g ><use style="fill: none; stroke: #000000; stroke-width: 0.500000; stroke-linejoin: round; stroke-linecap: butt;  opacity: 1.000000" xlink:href="#m20b58b2501143cb5e0a5e8f1ef6f1643" x="518.400000" y="43.200000"/>
</g></g>
<g id="text16">
<defs>
<path id="c_a0416418d96557a09b8c1332d34883ba" d="M37.796875 -64.312500l-24.906250 38.921875l24.906250 0.000000zM35.203125 -72.906250l12.406250 0.000000l0.000000 47.515625l10.406250 0.000000l0.000000 8.203125l-10.406250 0.000000l0.000000 17.187500l-9.812500 0.000000l0.000000 -17.187500l-32.906250 0.000000l0.000000 -9.515625z"/>
</defs>
<g style="fill: #000000; opacity: 1.000000" transform="translate(54.109375,47.567187)scale(0.120000)">
<use xlink:href="#c_a0416418d96557a09b8c1332d34883ba"/>
<use xlink:href="#c_7a2040fe3b94fcd41d0a72c84e93b115" x="63.623047"/>
</g>
</g>
</g>
<g id="text17">
<defs>
<path id="c_6ec8d5749226675394676a5d2a3b468b" d="M41.109375 -46.296875q-1.515625 -0.875000 -3.296875 -1.281250q-1.781250 -0.421875 -3.921875 -0.421875q-7.625000 0.000000 -11.703125 4.953125q-4.078125 4.953125 -4.078125 14.234375l0.000000 28.812500l-9.031250 0.000000l0.000000 -54.687500l9.031250 0.000000l0.000000 8.500000q2.843750 -4.984375 7.375000 -7.390625q4.546875 -2.421875 11.046875 -2.421875q0.921875 0.000000 2.046875 0.125000q1.125000 0.109375 2.484375 0.359375z"/>
<path id="c_0bce5afba2dc6b9024b26277c38ad8e8" d="M56.203125 -29.593750l0.000000 4.390625l-41.312500 0.000000q0.593750 9.281250 5.593750 14.140625q5.000000 4.859375 13.937500 4.859375q5.171875 0.000000 10.031250 -1.265625q4.859375 -1.265625 9.656250 -3.812500l0.000000 8.500000q-4.843750 2.046875 -9.921875 3.125000q-5.078125 1.078125 -10.296875 1.078125q-13.093750 0.000000 -20.734375 -7.609375q-7.640625 -7.625000 -7.640625 -20.625000q0.000000 -13.421875 7.250000 -21.296875q7.250000 -7.890625 19.562500 -7.890625q11.031250 0.000000 17.453125 7.109375q6.421875 7.093750 6.421875 19.296875M47.218750 -32.234375q-0.093750 -7.359375 -4.125000 -11.750000q-4.031250 -4.406250 -10.671875 -4.406250q-7.515625 0.000000 -12.031250 4.250000q-4.515625 4.250000 -5.203125 11.968750z"/>
<path id="c_d821beae607506e87470f334d9ff47af" d="M45.406250 -46.390625l0.000000 -29.593750l8.984375 0.000000l0.000000 75.984375l-8.984375 0.000000l0.000000 -8.203125q-2.828125 4.875000 -7.156250 7.250000q-4.312500 2.375000 -10.375000 2.375000q-9.906250 0.000000 -16.140625 -7.906250q-6.218750 -7.921875 -6.218750 -20.812500q0.000000 -12.890625 6.218750 -20.796875q6.234375 -7.906250 16.140625 -7.906250q6.062500 0.000000 10.375000 2.375000q4.328125 2.359375 7.156250 7.234375M14.796875 -27.296875q0.000000 9.906250 4.078125 15.546875q4.078125 5.640625 11.203125 5.640625q7.125000 0.000000 11.218750 -5.640625q4.109375 -5.640625 4.109375 -15.546875q0.000000 -9.906250 -4.109375 -15.546875q-4.093750 -5.640625 -11.218750 -5.640625q-7.125000 0.000000 -11.203125 5.640625q-4.078125 5.640625 -4.078125 15.546875"/>
<path id="c_0f8c41144cfbf448378cb6fd1cc8e549" d="M18.312500 -70.218750l0.000000 15.531250l18.500000 0.000000l0.000000 6.984375l-18.500000 0.000000l0.000000 29.687500q0.000000 6.687500 1.828125 8.593750q1.828125 1.906250 7.453125 1.906250l9.218750 0.000000l0.000000 7.515625l-9.218750 0.000000q-10.406250 0.000000 -14.359375 -3.875000q-3.953125 -3.890625 -3.953125 -14.140625l0.000000 -29.687500l-6.593750 0.000000l0.000000 -6.984375l6.593750 0.000000l0.000000 -15.531250z"/>
</defs>
<g style="fill: #000000; opacity: 1.000000" transform="translate(49.109375,236.382812)rotate(-90.0)scale(0.120000)">
<use xlink:href="#c_a469f8ee191679fe73f3b765bd271597"/>
<use xlink:href="#c_6ec8d5749226675394676a5d2a3b468b" x="69.824219"/>
<use xlink:href="#c_0bce5afba2dc6b9024b26277c38ad8e8" x="108.687500"/>
<use xlink:href="#c_d821beae607506e87470f334d9ff47af" x="170.210938"/>
<use xlink:href="#c_6a63bda47b2f3da1cec6aadd80692cfe" x="233.687500"/>
<use xlink:href="#c_0f8c41144cfbf448378cb6fd1cc8e549" x="261.470703"/>
<use xlink:href="#c_8e0810ad13fe20a2a87a2619799b154d" x="300.679688"/>
</g>
</g>
</g>
<g id="patch3">
<path style="fill: none; stroke: #000000; stroke-width: 1.000000; stroke-linejoin: round; stroke-linecap: square;  opacity: 1.000000"  d="M72.000000 43.200000L518.400000 43.200000"/>
</g>
<g id="patch4">
<path style="fill: none; stroke: #000000; stroke-width: 1.000000; stroke-linejoin: round; stroke-linecap: square;  opacity: 1.000000"  d="M518.400000 388.800000L518.400000 43.200000"/>
</g>
<g id="patch5">
<path style="fill: none; stroke: #000000; stroke-width: 1.000000; stroke-linejoin: round; stroke-linecap: square;  opacity: 1.000000"  d="M72.000000 388.800000L518.400000 388.800000"/>
</g>
<g id="patch6">
<path style="fill: none; stroke: #000000; stroke-width: 1.000000; stroke-linejoin: round; stroke-linecap: square;  opacity: 1.000000"  d="M72.000000 388.800000L72.000000 43.200000"/>
</g>
<g id="text18">
<defs>
<path id="c_d41d8cd98f00b204e9800998ecf8427e" d=""/>
<path id="c_73b12fe3945075d29fe0cc9a468fa31e" d="M37.109375 -75.984375l0.000000 7.484375l-8.593750 0.000000q-4.828125 0.000000 -6.718750 1.953125q-1.875000 1.953125 -1.875000 7.031250l0.000000 4.828125l14.796875 0.000000l0.000000 6.984375l-14.796875 0.000000l0.000000 47.703125l-9.031250 0.000000l0.000000 -47.703125l-8.593750 0.000000l0.000000 -6.984375l8.593750 0.000000l0.000000 -3.812500q0.000000 -9.125000 4.250000 -13.296875q4.250000 -4.187500 13.468750 -4.187500z"/>
<path id="c_f05dd90d41f04bb96ef1ca503cc2044b" d="M30.609375 -48.390625q-7.218750 0.000000 -11.421875 5.640625q-4.203125 5.640625 -4.203125 15.453125q0.000000 9.812500 4.171875 15.453125q4.187500 5.640625 11.453125 5.640625q7.187500 0.000000 11.375000 -5.656250q4.203125 -5.671875 4.203125 -15.437500q0.000000 -9.718750 -4.203125 -15.406250q-4.187500 -5.687500 -11.375000 -5.687500M30.609375 -56.000000q11.718750 0.000000 18.406250 7.625000q6.703125 7.609375 6.703125 21.078125q0.000000 13.421875 -6.703125 21.078125q-6.687500 7.640625 -18.406250 7.640625q-11.765625 0.000000 -18.437500 -7.640625q-6.656250 -7.656250 -6.656250 -21.078125q0.000000 -13.468750 6.656250 -21.078125q6.671875 -7.625000 18.437500 -7.625000"/>
<path id="c_74d54c94aa871ec39e2bc6697dde6c00" d="M54.890625 -33.015625l0.000000 33.015625l-8.984375 0.000000l0.000000 -32.718750q0.000000 -7.765625 -3.031250 -11.609375q-3.031250 -3.859375 -9.078125 -3.859375q-7.281250 0.000000 -11.484375 4.640625q-4.203125 4.625000 -4.203125 12.640625l0.000000 30.906250l-9.031250 0.000000l0.000000 -75.984375l9.031250 0.000000l0.000000 29.796875q3.234375 -4.937500 7.593750 -7.375000q4.375000 -2.437500 10.093750 -2.437500q9.421875 0.000000 14.250000 5.828125q4.843750 5.828125 4.843750 17.156250"/>
<path id="c_f15a64fcd463ef4629c48bab42cde24c" d="M18.109375 -8.203125l0.000000 29.000000l-9.031250 0.000000l0.000000 -75.484375l9.031250 0.000000l0.000000 8.296875q2.843750 -4.875000 7.156250 -7.234375q4.328125 -2.375000 10.328125 -2.375000q9.968750 0.000000 16.187500 7.906250q6.234375 7.906250 6.234375 20.796875q0.000000 12.890625 -6.234375 20.812500q-6.218750 7.906250 -16.187500 7.906250q-6.000000 0.000000 -10.328125 -2.375000q-4.312500 -2.375000 -7.156250 -7.250000M48.687500 -27.296875q0.000000 -9.906250 -4.078125 -15.546875q-4.078125 -5.640625 -11.203125 -5.640625q-7.140625 0.000000 -11.218750 5.640625q-4.078125 5.640625 -4.078125 15.546875q0.000000 9.906250 4.078125 15.546875q4.078125 5.640625 11.218750 5.640625q7.125000 0.000000 11.203125 -5.640625q4.078125 -5.640625 4.078125 -15.546875"/>
<path id="c_cd96f817f3cab988d24a2b49a5577fe6" d="M10.984375 -1.515625l0.000000 -8.984375q3.718750 1.765625 7.515625 2.687500q3.812500 0.921875 7.484375 0.921875q9.765625 0.000000 14.906250 -6.562500q5.156250 -6.562500 5.890625 -19.953125q-2.828125 4.203125 -7.187500 6.453125q-4.343750 2.250000 -9.609375 2.250000q-10.937500 0.000000 -17.312500 -6.609375q-6.375000 -6.625000 -6.375000 -18.109375q0.000000 -11.218750 6.640625 -18.000000q6.640625 -6.796875 17.671875 -6.796875q12.656250 0.000000 19.312500 9.703125q6.671875 9.687500 6.671875 28.140625q0.000000 17.234375 -8.187500 27.515625q-8.171875 10.281250 -21.984375 10.281250q-3.718750 0.000000 -7.531250 -0.734375q-3.796875 -0.734375 -7.906250 -2.203125M30.609375 -32.421875q6.640625 0.000000 10.515625 -4.531250q3.890625 -4.546875 3.890625 -12.468750q0.000000 -7.859375 -3.890625 -12.421875q-3.875000 -4.562500 -10.515625 -4.562500q-6.640625 0.000000 -10.515625 4.562500q-3.875000 4.562500 -3.875000 12.421875q0.000000 7.921875 3.875000 12.468750q3.875000 4.531250 10.515625 4.531250"/>
<path id="c_a56f7596f19f36c336140607221b43ce" d="M72.703125 -32.078125q-4.250000 0.000000 -6.671875 3.609375q-2.406250 3.609375 -2.406250 10.062500q0.000000 6.343750 2.406250 9.984375q2.421875 3.640625 6.671875 3.640625q4.156250 0.000000 6.562500 -3.640625q2.421875 -3.640625 2.421875 -9.984375q0.000000 -6.406250 -2.421875 -10.031250q-2.406250 -3.640625 -6.562500 -3.640625M72.703125 -38.281250q7.718750 0.000000 12.250000 5.375000q4.546875 5.359375 4.546875 14.500000q0.000000 9.125000 -4.562500 14.484375q-4.562500 5.343750 -12.234375 5.343750q-7.812500 0.000000 -12.359375 -5.343750q-4.531250 -5.359375 -4.531250 -14.484375q0.000000 -9.187500 4.562500 -14.531250q4.562500 -5.343750 12.328125 -5.343750M22.312500 -68.015625q-4.203125 0.000000 -6.625000 3.640625q-2.406250 3.625000 -2.406250 9.984375q0.000000 6.437500 2.390625 10.062500q2.390625 3.609375 6.640625 3.609375q4.250000 0.000000 6.656250 -3.609375q2.421875 -3.625000 2.421875 -10.062500q0.000000 -6.296875 -2.437500 -9.953125q-2.437500 -3.671875 -6.640625 -3.671875M66.406250 -74.218750l7.812500 0.000000l-45.609375 75.640625l-7.812500 0.000000zM22.312500 -74.218750q7.718750 0.000000 12.296875 5.343750q4.593750 5.343750 4.593750 14.484375q0.000000 9.218750 -4.562500 14.546875q-4.562500 5.328125 -12.328125 5.328125q-7.765625 0.000000 -12.281250 -5.343750q-4.515625 -5.359375 -4.515625 -14.531250q0.000000 -9.093750 4.531250 -14.453125q4.546875 -5.375000 12.265625 -5.375000"/>
<path id="c_3b86f9879deccc43ffac57ae939fe3b7" d="M59.515625 -10.406250l0.000000 -19.578125l-16.109375 0.000000l0.000000 -8.109375l25.875000 0.000000l0.000000 31.312500q-5.703125 4.046875 -12.593750 6.125000q-6.875000 2.078125 -14.687500 2.078125q-17.093750 0.000000 -26.750000 -9.984375q-9.640625 -10.000000 -9.640625 -27.812500q0.000000 -17.875000 9.640625 -27.859375q9.656250 -9.984375 26.750000 -9.984375q7.125000 0.000000 13.546875 1.765625q6.421875 1.750000 11.843750 5.171875l0.000000 10.500000q-5.468750 -4.640625 -11.625000 -6.984375q-6.156250 -2.343750 -12.937500 -2.343750q-13.390625 0.000000 -20.109375 7.468750q-6.703125 7.468750 -6.703125 22.265625q0.000000 14.750000 6.703125 22.218750q6.718750 7.468750 20.109375 7.468750q5.218750 0.000000 9.312500 -0.906250q4.109375 -0.906250 7.375000 -2.812500"/>
<path id="c_01d93a582460e35a7945ca50d148ffeb" d="M34.281250 -27.484375q-10.890625 0.000000 -15.093750 2.484375q-4.203125 2.484375 -4.203125 8.500000q0.000000 4.781250 3.156250 7.593750q3.156250 2.796875 8.562500 2.796875q7.484375 0.000000 12.000000 -5.296875q4.515625 -5.296875 4.515625 -14.078125l0.000000 -2.000000zM52.203125 -31.203125l0.000000 31.203125l-8.984375 0.000000l0.000000 -8.296875q-3.078125 4.968750 -7.671875 7.343750q-4.593750 2.375000 -11.234375 2.375000q-8.390625 0.000000 -13.359375 -4.718750q-4.953125 -4.718750 -4.953125 -12.625000q0.000000 -9.218750 6.171875 -13.906250q6.187500 -4.687500 18.437500 -4.687500l12.609375 0.000000l0.000000 -0.890625q0.000000 -6.203125 -4.078125 -9.593750q-4.078125 -3.390625 -11.453125 -3.390625q-4.687500 0.000000 -9.140625 1.125000q-4.437500 1.125000 -8.531250 3.375000l0.000000 -8.312500q4.921875 -1.906250 9.562500 -2.843750q4.640625 -0.953125 9.031250 -0.953125q11.875000 0.000000 17.734375 6.156250q5.859375 6.140625 5.859375 18.640625"/>
<path id="c_4653c6dfde66c7610eae0911760d3490" d="M52.000000 -44.187500q3.375000 -6.062500 8.062500 -8.937500q4.687500 -2.875000 11.031250 -2.875000q8.546875 0.000000 13.187500 5.984375q4.640625 5.968750 4.640625 17.000000l0.000000 33.015625l-9.031250 0.000000l0.000000 -32.718750q0.000000 -7.859375 -2.796875 -11.656250q-2.781250 -3.812500 -8.484375 -3.812500q-6.984375 0.000000 -11.046875 4.640625q-4.046875 4.625000 -4.046875 12.640625l0.000000 30.906250l-9.031250 0.000000l0.000000 -32.718750q0.000000 -7.906250 -2.781250 -11.687500q-2.781250 -3.781250 -8.593750 -3.781250q-6.890625 0.000000 -10.953125 4.656250q-4.046875 4.656250 -4.046875 12.625000l0.000000 30.906250l-9.031250 0.000000l0.000000 -54.687500l9.031250 0.000000l0.000000 8.500000q3.078125 -5.031250 7.375000 -7.421875q4.296875 -2.390625 10.203125 -2.390625q5.968750 0.000000 10.140625 3.031250q4.171875 3.015625 6.171875 8.781250"/>
</defs>
<g style="fill: #000000; opacity: 1.000000" transform="translate(174.989062,35.293750)scale(0.144000)">
<use xlink:href="#c_a469f8ee191679fe73f3b765bd271597"/>
<use xlink:href="#c_6ec8d5749226675394676a5d2a3b468b" x="69.824219"/>
<use xlink:href="#c_0bce5afba2dc6b9024b26277c38ad8e8" x="108.687500"/>
<use xlink:href="#c_d821beae607506e87470f334d9ff47af" x="170.210938"/>
<use xlink:href="#c_6a63bda47b2f3da1cec6aadd80692cfe" x="233.687500"/>
<use xlink:href="#c_0f8c41144cfbf448378cb6fd1cc8e549" x="261.470703"/>
<use xlink:href="#c_8e0810ad13fe20a2a87a2619799b154d" x="300.679688"/>
<use xlink:href="#c_d41d8cd98f00b204e9800998ecf8427e" x="352.779297"/>
<use xlink:href="#c_73b12fe3945075d29fe0cc9a468fa31e" x="384.566406"/>
<use xlink:href="#c_f05dd90d41f04bb96ef1ca503cc2044b" x="419.771484"/>
<use xlink:href="#c_6ec8d5749226675394676a5d2a3b468b" x="480.953125"/>
<use xlink:href="#c_d41d8cd98f00b204e9800998ecf8427e" x="522.066406"/>
<use xlink:href="#c_0f8c41144cfbf448378cb6fd1cc8e549" x="553.853516"/>
<use xlink:href="#c_74d54c94aa871ec39e2bc6697dde6c00" x="593.062500"/>
<use xlink:href="#c_0bce5afba2dc6b9024b26277c38ad8e8" x="656.441406"/>
<use xlink:href="#c_d41d8cd98f00b204e9800998ecf8427e" x="717.964844"/>
<use xlink:href="#c_0f8c41144cfbf448378cb6fd1cc8e549" x="749.751953"/>
<use xlink:href="#c_f05dd90d41f04bb96ef1ca503cc2044b" x="788.960938"/>
<use xlink:href="#c_f15a64fcd463ef4629c48bab42cde24c" x="850.142578"/>
<use xlink:href="#c_d41d8cd98f00b204e9800998ecf8427e" x="913.619141"/>
<use xlink:href="#c_cd96f817f3cab988d24a2b49a5577fe6" x="945.406250"/>
<use xlink:href="#c_7a2040fe3b94fcd41d0a72c84e93b115" x="1009.029297"/>
<use xlink:href="#c_a56f7596f19f36c336140607221b43ce" x="1072.652344"/>
<use xlink:href="#c_d41d8cd98f00b204e9800998ecf8427e" x="1167.671875"/>
<use xlink:href="#c_f05dd90d41f04bb96ef1ca503cc2044b" x="1199.458984"/>
<use xlink:href="#c_73b12fe3945075d29fe0cc9a468fa31e" x="1260.640625"/>
<use xlink:href="#c_d41d8cd98f00b204e9800998ecf8427e" x="1295.845703"/>
<use xlink:href="#c_3b86f9879deccc43ffac57ae939fe3b7" x="1327.632813"/>
<use xlink:href="#c_01d93a582460e35a7945ca50d148ffeb" x="1405.123047"/>
<use xlink:href="#c_4653c6dfde66c7610eae0911760d3490" x="1466.402344"/>
<use xlink:href="#c_0bce5afba2dc6b9024b26277c38ad8e8" x="1563.814453"/>
<use xlink:href="#c_8e0810ad13fe20a2a87a2619799b154d" x="1625.337891"/>
</g>
</g>
<g id="legend1">
<g id="patch7">
<path style="fill: #ffffff; stroke: #000000; stroke-width: 1.000000; stroke-linejoin: round; stroke-linecap: square;  opacity: 1.000000"  d="M79.200000 179.201250L282.290000 179.201250L282.290000 50.400000
L79.200000 50.400000L79.200000 179.201250z"/>
</g>
<g id="line2d64">
<path style="fill: none; stroke: #008000; stroke-width: 3.000000; stroke-linejoin: round; stroke-linecap: butt; stroke-dasharray: 6.000000,6.000000; stroke-dashoffset: 0.000000; opacity: 1.000000"  d="M89.280000 61.760625L109.440000 61.760625"/>
</g>
<g id="line2d65">
</g>
<g id="text19">
<defs>
<path id="c_c48ceabac27bf136feba2f4bf2716ab6" d="M2.984375 -54.687500l9.515625 0.000000l17.093750 45.890625l17.093750 -45.890625l9.515625 0.000000l-20.515625 54.687500l-12.203125 0.000000z"/>
</defs>
<g style="fill: #000000; opacity: 1.000000" transform="translate(125.280000,66.800625)scale(0.144000)">
<use xlink:href="#c_0bce5afba2dc6b9024b26277c38ad8e8"/>
<use xlink:href="#c_c48ceabac27bf136feba2f4bf2716ab6" x="61.523438"/>
<use xlink:href="#c_0f8c41144cfbf448378cb6fd1cc8e549" x="120.703125"/>
<use xlink:href="#c_8e0810ad13fe20a2a87a2619799b154d" x="159.912109"/>
</g>
</g>
<g id="line2d66">
<path style="fill: none; stroke: #008000; stroke-width: 3.000000; stroke-linejoin: round; stroke-linecap: square;  opacity: 1.000000"  d="M89.280000 82.507500L109.440000 82.507500"/>
</g>
<g id="line2d67">
</g>
<g id="text20">
<defs>
<path id="c_5190dbc1cdbe53cbdd605e1721869cb7" d="M46.000000 -62.703125l0.000000 27.203125l27.187500 0.000000l0.000000 8.296875l-27.187500 0.000000l0.000000 27.203125l-8.203125 0.000000l0.000000 -27.203125l-27.203125 0.000000l0.000000 -8.296875l27.203125 0.000000l0.000000 -27.203125z"/>
<path id="c_57adaa7083d7229075db8bc2c5b2febe" d="M4.203125 -54.687500l8.984375 0.000000l11.234375 42.671875l11.171875 -42.671875l10.593750 0.000000l11.234375 42.671875l11.187500 -42.671875l8.984375 0.000000l-14.312500 54.687500l-10.593750 0.000000l-11.765625 -44.828125l-11.812500 44.828125l-10.609375 0.000000z"/>
</defs>
<g style="fill: #000000; opacity: 1.000000" transform="translate(125.280000,87.547500)scale(0.144000)">
<use xlink:href="#c_0bce5afba2dc6b9024b26277c38ad8e8"/>
<use xlink:href="#c_c48ceabac27bf136feba2f4bf2716ab6" x="61.523438"/>
<use xlink:href="#c_0f8c41144cfbf448378cb6fd1cc8e549" x="120.703125"/>
<use xlink:href="#c_8e0810ad13fe20a2a87a2619799b154d" x="159.912109"/>
<use xlink:href="#c_5190dbc1cdbe53cbdd605e1721869cb7" x="212.011719"/>
<use xlink:href="#c_d821beae607506e87470f334d9ff47af" x="295.800781"/>
<use xlink:href="#c_6ec8d5749226675394676a5d2a3b468b" x="359.277344"/>
<use xlink:href="#c_01d93a582460e35a7945ca50d148ffeb" x="400.390625"/>
<use xlink:href="#c_57adaa7083d7229075db8bc2c5b2febe" x="461.669922"/>
</g>
</g>
<g id="line2d68">
<path style="fill: none; stroke: #bfbf00; stroke-width: 3.000000; stroke-linejoin: round; stroke-linecap: square;  opacity: 1.000000"  d="M89.280000 103.254375L109.440000 103.254375"/>
</g>
<g id="line2d69">
</g>
<g id="text21">
<g style="fill: #000000; opacity: 1.000000" transform="translate(125.280000,108.294375)scale(0.144000)">
<use xlink:href="#c_f15a64fcd463ef4629c48bab42cde24c"/>
<use xlink:href="#c_c48ceabac27bf136feba2f4bf2716ab6" x="63.476562"/>
<use xlink:href="#c_f15a64fcd463ef4629c48bab42cde24c" x="122.656250"/>
<use xlink:href="#c_5190dbc1cdbe53cbdd605e1721869cb7" x="186.132812"/>
<use xlink:href="#c_0bce5afba2dc6b9024b26277c38ad8e8" x="269.921875"/>
<use xlink:href="#c_c48ceabac27bf136feba2f4bf2716ab6" x="331.445312"/>
<use xlink:href="#c_0f8c41144cfbf448378cb6fd1cc8e549" x="390.625000"/>
<use xlink:href="#c_8e0810ad13fe20a2a87a2619799b154d" x="429.833984"/>
<use xlink:href="#c_5190dbc1cdbe53cbdd605e1721869cb7" x="481.933594"/>
<use xlink:href="#c_d821beae607506e87470f334d9ff47af" x="565.722656"/>
<use xlink:href="#c_6ec8d5749226675394676a5d2a3b468b" x="629.199219"/>
<use xlink:href="#c_01d93a582460e35a7945ca50d148ffeb" x="670.312500"/>
<use xlink:href="#c_57adaa7083d7229075db8bc2c5b2febe" x="731.591797"/>
</g>
</g>
<g id="line2d70">
<path style="fill: none; stroke: #bfbf00; stroke-width: 3.000000; stroke-linejoin: round; stroke-linecap: butt; stroke-dasharray: 6.000000,6.000000; stroke-dashoffset: 0.000000; opacity: 1.000000"  d="M89.280000 124.001250L109.440000 124.001250"/>
</g>
<g id="line2d71">
</g>
<g id="text22">
<defs>
<path id="c_1e6263c731c474ef67a09469452f0b99" d="M11.718750 -12.406250l10.296875 0.000000l0.000000 12.406250l-10.296875 0.000000zM11.718750 -51.703125l10.296875 0.000000l0.000000 12.390625l-10.296875 0.000000z"/>
</defs>
<g style="fill: #000000; opacity: 1.000000" transform="translate(125.280000,129.041250)scale(0.144000)">
<use xlink:href="#c_dcb78ab3124be785176d70a27dde1356"/>
<use xlink:href="#c_01d93a582460e35a7945ca50d148ffeb" x="56.160156"/>
<use xlink:href="#c_0f8c41144cfbf448378cb6fd1cc8e549" x="117.439453"/>
<use xlink:href="#c_0bce5afba2dc6b9024b26277c38ad8e8" x="156.648437"/>
<use xlink:href="#c_1e6263c731c474ef67a09469452f0b99" x="218.171875"/>
<use xlink:href="#c_f15a64fcd463ef4629c48bab42cde24c" x="251.863281"/>
<use xlink:href="#c_c48ceabac27bf136feba2f4bf2716ab6" x="315.339844"/>
<use xlink:href="#c_f15a64fcd463ef4629c48bab42cde24c" x="374.519531"/>
<use xlink:href="#c_5190dbc1cdbe53cbdd605e1721869cb7" x="437.996094"/>
<use xlink:href="#c_0bce5afba2dc6b9024b26277c38ad8e8" x="521.785156"/>
<use xlink:href="#c_c48ceabac27bf136feba2f4bf2716ab6" x="583.308594"/>
<use xlink:href="#c_0f8c41144cfbf448378cb6fd1cc8e549" x="642.488281"/>
<use xlink:href="#c_8e0810ad13fe20a2a87a2619799b154d" x="681.697266"/>
<use xlink:href="#c_5190dbc1cdbe53cbdd605e1721869cb7" x="733.796875"/>
<use xlink:href="#c_d821beae607506e87470f334d9ff47af" x="817.585938"/>
<use xlink:href="#c_6ec8d5749226675394676a5d2a3b468b" x="881.062500"/>
<use xlink:href="#c_01d93a582460e35a7945ca50d148ffeb" x="922.175781"/>
<use xlink:href="#c_57adaa7083d7229075db8bc2c5b2febe" x="983.455078"/>
</g>
</g>
<g id="line2d72">
<path style="fill: none; stroke: #0000ff; stroke-width: 3.000000; stroke-linejoin: round; stroke-linecap: butt; stroke-dasharray: 6.000000,6.000000; stroke-dashoffset: 0.000000; opacity: 1.000000"  d="M89.280000 144.748125L109.440000 144.748125"/>
</g>
<g id="line2d73">
</g>
<g id="text23">
<defs>
<path id="c_fe791a90f5471e2ab20a5ed41a7fa451" d="M54.890625 -33.015625l0.000000 33.015625l-8.984375 0.000000l0.000000 -32.718750q0.000000 -7.765625 -3.031250 -11.609375q-3.031250 -3.859375 -9.078125 -3.859375q-7.281250 0.000000 -11.484375 4.640625q-4.203125 4.625000 -4.203125 12.640625l0.000000 30.906250l-9.031250 0.000000l0.000000 -54.687500l9.031250 0.000000l0.000000 8.500000q3.234375 -4.937500 7.593750 -7.375000q4.375000 -2.437500 10.093750 -2.437500q9.421875 0.000000 14.250000 5.828125q4.843750 5.828125 4.843750 17.156250"/>
</defs>
<g style="fill: #000000; opacity: 1.000000" transform="translate(125.280000,149.788125)scale(0.144000)">
<use xlink:href="#c_f15a64fcd463ef4629c48bab42cde24c"/>
<use xlink:href="#c_6ec8d5749226675394676a5d2a3b468b" x="63.476562"/>
<use xlink:href="#c_f05dd90d41f04bb96ef1ca503cc2044b" x="102.339844"/>
<use xlink:href="#c_d650c37394b681142a10dfc54356d478" x="163.521484"/>
<use xlink:href="#c_f05dd90d41f04bb96ef1ca503cc2044b" x="218.501953"/>
<use xlink:href="#c_fe791a90f5471e2ab20a5ed41a7fa451" x="279.683594"/>
<use xlink:href="#c_8e0810ad13fe20a2a87a2619799b154d" x="343.062500"/>
</g>
</g>
<g id="line2d74">
<path style="fill: none; stroke: #0000ff; stroke-width: 3.000000; stroke-linejoin: round; stroke-linecap: square;  opacity: 1.000000"  d="M89.280000 165.495000L109.440000 165.495000"/>
</g>
<g id="line2d75">
</g>
<g id="text24">
<g style="fill: #000000; opacity: 1.000000" transform="translate(125.280000,170.535000)scale(0.144000)">
<use xlink:href="#c_0bce5afba2dc6b9024b26277c38ad8e8"/>
<use xlink:href="#c_c48ceabac27bf136feba2f4bf2716ab6" x="61.523438"/>
<use xlink:href="#c_0f8c41144cfbf448378cb6fd1cc8e549" x="120.703125"/>
<use xlink:href="#c_8e0810ad13fe20a2a87a2619799b154d" x="159.912109"/>
<use xlink:href="#c_5190dbc1cdbe53cbdd605e1721869cb7" x="212.011719"/>
<use xlink:href="#c_f15a64fcd463ef4629c48bab42cde24c" x="295.800781"/>
<use xlink:href="#c_6ec8d5749226675394676a5d2a3b468b" x="359.277344"/>
<use xlink:href="#c_f05dd90d41f04bb96ef1ca503cc2044b" x="398.140625"/>
<use xlink:href="#c_d650c37394b681142a10dfc54356d478" x="459.322266"/>
<use xlink:href="#c_f05dd90d41f04bb96ef1ca503cc2044b" x="514.302734"/>
<use xlink:href="#c_fe791a90f5471e2ab20a5ed41a7fa451" x="575.484375"/>
<use xlink:href="#c_8e0810ad13fe20a2a87a2619799b154d" x="638.863281"/>
</g>
</g>
</g>
</g>
</g>
</svg>
