<?xml version="1.0" standalone="no"?>
<!DOCTYPE svg PUBLIC "-//W3C//DTD SVG 1.1//EN"
  "http://www.w3.org/Graphics/SVG/1.1/DTD/svg11.dtd">
<!-- Created with matplotlib (http://matplotlib.sourceforge.net/) -->
<svg width="576pt" height="432pt" viewBox="0 0 576 432"
   xmlns="http://www.w3.org/2000/svg"
   xmlns:xlink="http://www.w3.org/1999/xlink"
   version="1.1"
   id="svg1">
<g id="figure1">
<g id="patch1">
<path style="fill: #ffffff; stroke: #ffffff; stroke-width: 1.000000; stroke-linejoin: round; stroke-linecap: square;  opacity: 1.000000"  d="M0.000000 432.000000L576.000000 432.000000L576.000000 0.000000
L0.000000 0.000000L0.000000 432.000000"/>
</g>
<g id="axes1">
<g id="patch2">
<path style="fill: #ffffff; opacity: 1.000000"  d="M72.000000 388.800000L518.400000 388.800000L518.400000 43.200000
L72.000000 43.200000L72.000000 388.800000"/>
</g>
<g id="line2d1">
<defs>
  <clipPath id="p50431ccdcb28178602d99d9270004dde">
<rect x="72.000000" y="43.200000" width="446.400000" height="345.600000"/>
  </clipPath>
</defs><path style="fill: none; stroke: #008000; stroke-width: 3.000000; stroke-linejoin: round; stroke-linecap: butt; stroke-dasharray: 6.000000,6.000000; stroke-dashoffset: 0.000000; opacity: 1.000000" clip-path="url(#p50431ccdcb28178602d99d9270004dde)" d="M72.000000 388.800000L86.880000 241.607812L101.760000 190.350000
L116.640000 173.728125L131.520000 171.871875L146.400000 171.323437
L161.280000 168.918750L176.160000 167.990625L191.040000 168.623437
L205.920000 169.171875L220.800000 170.690625L235.680000 172.631250
L250.560000 172.842187L265.440000 171.745312L280.320000 168.581250
L295.200000 167.653125L310.080000 170.057812L324.960000 170.564063
L339.840000 169.171875L354.720000 169.298438L369.600000 168.581250
L384.480000 167.906250L399.360000 168.412500L414.240000 167.146875
L429.120000 164.995312L444.000000 166.387500L458.880000 169.678125
L473.760000 171.534375L488.640000 171.956250L503.520000 171.956250"/>
</g>
<g id="line2d2">
<path style="fill: none; stroke: #008000; stroke-width: 3.000000; stroke-linejoin: round; stroke-linecap: square;  opacity: 1.000000" clip-path="url(#p50431ccdcb28178602d99d9270004dde)" d="M72.000000 388.800000L86.880000 138.206250L101.760000 94.035937
L116.640000 106.776562L131.520000 107.662500L146.400000 109.307812
L161.280000 116.564062L176.160000 117.576562L191.040000 117.998437
L205.920000 127.828125L220.800000 129.093750L235.680000 120.107812
L250.560000 121.710938L265.440000 126.604687L280.320000 128.334375
L295.200000 125.971875L310.080000 127.575000L324.960000 128.925000
L339.840000 128.925000L354.720000 126.689062L369.600000 125.296875
L384.480000 124.875000L399.360000 128.334375L414.240000 128.460938
L429.120000 128.250000L444.000000 126.562500L458.880000 127.828125
L473.760000 133.607812L488.640000 132.595313L503.520000 132.595313"/>
</g>
<g id="line2d3">
<path style="fill: none; stroke: #bfbf00; stroke-width: 3.000000; stroke-linejoin: round; stroke-linecap: square;  opacity: 1.000000" clip-path="url(#p50431ccdcb28178602d99d9270004dde)" d="M72.000000 388.800000L86.880000 213.975000L101.760000 157.950000
L116.640000 142.973437L131.520000 158.245312L146.400000 157.907813
L161.280000 161.409375L176.160000 164.235938L191.040000 161.535937
L205.920000 164.446875L220.800000 168.581250L235.680000 170.985938
L250.560000 171.323437L265.440000 168.243750L280.320000 168.960938
L295.200000 168.454688L310.080000 169.382812L324.960000 167.273438
L339.840000 162.928125L354.720000 169.382812L369.600000 169.635937
L384.480000 167.610938L399.360000 171.914062L414.240000 173.264062
L429.120000 172.842187L444.000000 170.606250L458.880000 169.678125
L473.760000 170.226562L488.640000 170.690625L503.520000 170.690625"/>
</g>
<g id="line2d4">
<path style="fill: none; stroke: #bfbf00; stroke-width: 3.000000; stroke-linejoin: round; stroke-linecap: butt; stroke-dasharray: 6.000000,6.000000; stroke-dashoffset: 0.000000; opacity: 1.000000" clip-path="url(#p50431ccdcb28178602d99d9270004dde)" d="M72.000000 388.800000L86.880000 198.660937L101.760000 149.639062
L116.640000 146.981250L131.520000 154.575000L146.400000 155.334375
L161.280000 158.709375L176.160000 158.034375L191.040000 164.404687
L205.920000 171.703125L220.800000 166.935937L235.680000 162.801562
L250.560000 166.260937L265.440000 164.278125L280.320000 167.948437
L295.200000 175.204688L310.080000 169.509375L324.960000 169.425000
L339.840000 171.070312L354.720000 172.335938L369.600000 176.934375
L384.480000 173.770312L399.360000 170.100000L414.240000 169.846875
L429.120000 172.546875L444.000000 173.854688L458.880000 169.804688
L473.760000 169.509375L488.640000 170.142188L503.520000 170.142188"/>
</g>
<g id="line2d5">
<path style="fill: none; stroke: #0000ff; stroke-width: 3.000000; stroke-linejoin: round; stroke-linecap: butt; stroke-dasharray: 6.000000,6.000000; stroke-dashoffset: 0.000000; opacity: 1.000000" clip-path="url(#p50431ccdcb28178602d99d9270004dde)" d="M72.000000 388.800000L86.880000 79.059375L101.760000 77.793750
L116.640000 75.515625L131.520000 73.996875L146.400000 73.406250
L161.280000 72.520312L176.160000 71.803125L191.040000 71.676562
L205.920000 71.254687L220.800000 70.537500L235.680000 69.567187
L250.560000 70.031250L265.440000 70.875000L280.320000 69.735937
L295.200000 68.554687L310.080000 66.951562L324.960000 65.939062
L339.840000 66.487500L354.720000 67.162500L369.600000 67.415625
L384.480000 66.529687L399.360000 65.053125L414.240000 66.192187
L429.120000 65.939062L444.000000 64.335937L458.880000 64.673437
L473.760000 65.643750L488.640000 66.614062L503.520000 66.614062"/>
</g>
<g id="line2d6">
<path style="fill: none; stroke: #0000ff; stroke-width: 3.000000; stroke-linejoin: round; stroke-linecap: square;  opacity: 1.000000" clip-path="url(#p50431ccdcb28178602d99d9270004dde)" d="M72.000000 388.800000L86.880000 252.239062L101.760000 211.612500
L116.640000 201.107812L131.520000 202.162500L146.400000 201.656250
L161.280000 195.792188L176.160000 189.928125L191.040000 191.404687
L205.920000 193.851562L220.800000 194.273438L235.680000 192.628125
L250.560000 189.379687L265.440000 192.543750L280.320000 196.509375
L295.200000 196.340625L310.080000 195.496875L324.960000 193.387500
L339.840000 191.657813L354.720000 191.826562L369.600000 192.164062
L384.480000 192.796875L399.360000 194.189063L414.240000 193.514062
L429.120000 190.560937L444.000000 187.945312L458.880000 188.071875
L473.760000 190.687500L488.640000 194.357812L503.520000 194.357812"/>
</g>
<g id="matplotlib.axis1">
<g id="xtick1">
<g id="line2d7">
<path style="fill: none; stroke: #000000; stroke-width: 0.500000; stroke-linejoin: round; stroke-linecap: butt; stroke-dasharray: 1.000000,3.000000; stroke-dashoffset: 0.000000; opacity: 1.000000" clip-path="url(#p50431ccdcb28178602d99d9270004dde)" d="M72.000000 388.800000L72.000000 43.200000"/>
</g>
<g id="line2d8">
<defs><path id="m30e32995789d870ad79a2e54c91cf9c6" d="M0.000000 0.000000L0.000000 -4.000000"/></defs>
<g ><use style="fill: none; stroke: #000000; stroke-width: 0.500000; stroke-linejoin: round; stroke-linecap: butt;  opacity: 1.000000" xlink:href="#m30e32995789d870ad79a2e54c91cf9c6" x="72.000000" y="388.800000"/>
</g></g>
<g id="line2d9">
<defs><path id="m9281cae24120827b11d5ea8a7ad3e96b" d="M0.000000 0.000000L0.000000 4.000000"/></defs>
<g ><use style="fill: none; stroke: #000000; stroke-width: 0.500000; stroke-linejoin: round; stroke-linecap: butt;  opacity: 1.000000" xlink:href="#m9281cae24120827b11d5ea8a7ad3e96b" x="72.000000" y="43.200000"/>
</g></g>
<g id="text1">
<defs>
<path id="c_7a2040fe3b94fcd41d0a72c84e93b115" d="M31.781250 -66.406250q-7.609375 0.000000 -11.453125 7.500000q-3.828125 7.484375 -3.828125 22.531250q0.000000 14.984375 3.828125 22.484375q3.843750 7.500000 11.453125 7.500000q7.671875 0.000000 11.500000 -7.500000q3.843750 -7.500000 3.843750 -22.484375q0.000000 -15.046875 -3.843750 -22.531250q-3.828125 -7.500000 -11.500000 -7.500000M31.781250 -74.218750q12.265625 0.000000 18.734375 9.703125q6.468750 9.687500 6.468750 28.140625q0.000000 18.406250 -6.468750 28.109375q-6.468750 9.687500 -18.734375 9.687500q-12.250000 0.000000 -18.718750 -9.687500q-6.468750 -9.703125 -6.468750 -28.109375q0.000000 -18.453125 6.468750 -28.140625q6.468750 -9.703125 18.718750 -9.703125"/>
</defs>
<g style="fill: #000000; opacity: 1.000000" transform="translate(68.976562,401.706250)scale(0.120000)">
<use xlink:href="#c_7a2040fe3b94fcd41d0a72c84e93b115"/>
</g>
</g>
</g>
<g id="xtick2">
<g id="line2d10">
<path style="fill: none; stroke: #000000; stroke-width: 0.500000; stroke-linejoin: round; stroke-linecap: butt; stroke-dasharray: 1.000000,3.000000; stroke-dashoffset: 0.000000; opacity: 1.000000" clip-path="url(#p50431ccdcb28178602d99d9270004dde)" d="M146.400000 388.800000L146.400000 43.200000"/>
</g>
<g id="line2d11">
<g ><use style="fill: none; stroke: #000000; stroke-width: 0.500000; stroke-linejoin: round; stroke-linecap: butt;  opacity: 1.000000" xlink:href="#m30e32995789d870ad79a2e54c91cf9c6" x="146.400000" y="388.800000"/>
</g></g>
<g id="line2d12">
<g ><use style="fill: none; stroke: #000000; stroke-width: 0.500000; stroke-linejoin: round; stroke-linecap: butt;  opacity: 1.000000" xlink:href="#m9281cae24120827b11d5ea8a7ad3e96b" x="146.400000" y="43.200000"/>
</g></g>
<g id="text2">
<defs>
<path id="c_1260a2df50f305f3db244e29828f968e" d="M10.796875 -72.906250l38.718750 0.000000l0.000000 8.312500l-29.687500 0.000000l0.000000 17.859375q2.140625 -0.734375 4.281250 -1.093750q2.156250 -0.359375 4.312500 -0.359375q12.203125 0.000000 19.328125 6.687500q7.140625 6.687500 7.140625 18.109375q0.000000 11.765625 -7.328125 18.296875q-7.328125 6.515625 -20.656250 6.515625q-4.593750 0.000000 -9.359375 -0.781250q-4.750000 -0.781250 -9.828125 -2.343750l0.000000 -9.921875q4.390625 2.390625 9.078125 3.562500q4.687500 1.171875 9.906250 1.171875q8.453125 0.000000 13.375000 -4.437500q4.937500 -4.437500 4.937500 -12.062500q0.000000 -7.609375 -4.937500 -12.046875q-4.921875 -4.453125 -13.375000 -4.453125q-3.953125 0.000000 -7.890625 0.875000q-3.921875 0.875000 -8.015625 2.734375z"/>
</defs>
<g style="fill: #000000; opacity: 1.000000" transform="translate(143.564063,401.550000)scale(0.120000)">
<use xlink:href="#c_1260a2df50f305f3db244e29828f968e"/>
</g>
</g>
</g>
<g id="xtick3">
<g id="line2d13">
<path style="fill: none; stroke: #000000; stroke-width: 0.500000; stroke-linejoin: round; stroke-linecap: butt; stroke-dasharray: 1.000000,3.000000; stroke-dashoffset: 0.000000; opacity: 1.000000" clip-path="url(#p50431ccdcb28178602d99d9270004dde)" d="M220.800000 388.800000L220.800000 43.200000"/>
</g>
<g id="line2d14">
<g ><use style="fill: none; stroke: #000000; stroke-width: 0.500000; stroke-linejoin: round; stroke-linecap: butt;  opacity: 1.000000" xlink:href="#m30e32995789d870ad79a2e54c91cf9c6" x="220.800000" y="388.800000"/>
</g></g>
<g id="line2d15">
<g ><use style="fill: none; stroke: #000000; stroke-width: 0.500000; stroke-linejoin: round; stroke-linecap: butt;  opacity: 1.000000" xlink:href="#m9281cae24120827b11d5ea8a7ad3e96b" x="220.800000" y="43.200000"/>
</g></g>
<g id="text3">
<defs>
<path id="c_42baa63129a918535c52adb20d687ea7" d="M12.406250 -8.296875l16.109375 0.000000l0.000000 -55.625000l-17.531250 3.515625l0.000000 -8.984375l17.437500 -3.515625l9.859375 0.000000l0.000000 64.609375l16.109375 0.000000l0.000000 8.296875l-41.984375 0.000000z"/>
</defs>
<g style="fill: #000000; opacity: 1.000000" transform="translate(214.214062,401.706250)scale(0.120000)">
<use xlink:href="#c_42baa63129a918535c52adb20d687ea7"/>
<use xlink:href="#c_7a2040fe3b94fcd41d0a72c84e93b115" x="63.623047"/>
</g>
</g>
</g>
<g id="xtick4">
<g id="line2d16">
<path style="fill: none; stroke: #000000; stroke-width: 0.500000; stroke-linejoin: round; stroke-linecap: butt; stroke-dasharray: 1.000000,3.000000; stroke-dashoffset: 0.000000; opacity: 1.000000" clip-path="url(#p50431ccdcb28178602d99d9270004dde)" d="M295.200000 388.800000L295.200000 43.200000"/>
</g>
<g id="line2d17">
<g ><use style="fill: none; stroke: #000000; stroke-width: 0.500000; stroke-linejoin: round; stroke-linecap: butt;  opacity: 1.000000" xlink:href="#m30e32995789d870ad79a2e54c91cf9c6" x="295.200000" y="388.800000"/>
</g></g>
<g id="line2d18">
<g ><use style="fill: none; stroke: #000000; stroke-width: 0.500000; stroke-linejoin: round; stroke-linecap: butt;  opacity: 1.000000" xlink:href="#m9281cae24120827b11d5ea8a7ad3e96b" x="295.200000" y="43.200000"/>
</g></g>
<g id="text4">
<g style="fill: #000000; opacity: 1.000000" transform="translate(288.739062,401.550000)scale(0.120000)">
<use xlink:href="#c_42baa63129a918535c52adb20d687ea7"/>
<use xlink:href="#c_1260a2df50f305f3db244e29828f968e" x="63.623047"/>
</g>
</g>
</g>
<g id="xtick5">
<g id="line2d19">
<path style="fill: none; stroke: #000000; stroke-width: 0.500000; stroke-linejoin: round; stroke-linecap: butt; stroke-dasharray: 1.000000,3.000000; stroke-dashoffset: 0.000000; opacity: 1.000000" clip-path="url(#p50431ccdcb28178602d99d9270004dde)" d="M369.600000 388.800000L369.600000 43.200000"/>
</g>
<g id="line2d20">
<g ><use style="fill: none; stroke: #000000; stroke-width: 0.500000; stroke-linejoin: round; stroke-linecap: butt;  opacity: 1.000000" xlink:href="#m30e32995789d870ad79a2e54c91cf9c6" x="369.600000" y="388.800000"/>
</g></g>
<g id="line2d21">
<g ><use style="fill: none; stroke: #000000; stroke-width: 0.500000; stroke-linejoin: round; stroke-linecap: butt;  opacity: 1.000000" xlink:href="#m9281cae24120827b11d5ea8a7ad3e96b" x="369.600000" y="43.200000"/>
</g></g>
<g id="text5">
<defs>
<path id="c_ed3f3ed3ebfbd18bcb9c012009a68ad1" d="M19.187500 -8.296875l34.421875 0.000000l0.000000 8.296875l-46.281250 0.000000l0.000000 -8.296875q5.609375 -5.812500 15.296875 -15.593750q9.703125 -9.796875 12.187500 -12.640625q4.734375 -5.312500 6.609375 -9.000000q1.890625 -3.687500 1.890625 -7.250000q0.000000 -5.812500 -4.078125 -9.468750q-4.078125 -3.671875 -10.625000 -3.671875q-4.640625 0.000000 -9.796875 1.609375q-5.140625 1.609375 -11.000000 4.890625l0.000000 -9.968750q5.953125 -2.390625 11.125000 -3.609375q5.187500 -1.218750 9.484375 -1.218750q11.328125 0.000000 18.062500 5.671875q6.734375 5.656250 6.734375 15.125000q0.000000 4.500000 -1.687500 8.531250q-1.671875 4.015625 -6.125000 9.484375q-1.218750 1.421875 -7.765625 8.187500q-6.531250 6.765625 -18.453125 18.921875"/>
</defs>
<g style="fill: #000000; opacity: 1.000000" transform="translate(362.795312,401.706250)scale(0.120000)">
<use xlink:href="#c_ed3f3ed3ebfbd18bcb9c012009a68ad1"/>
<use xlink:href="#c_7a2040fe3b94fcd41d0a72c84e93b115" x="63.623047"/>
</g>
</g>
</g>
<g id="xtick6">
<g id="line2d22">
<path style="fill: none; stroke: #000000; stroke-width: 0.500000; stroke-linejoin: round; stroke-linecap: butt; stroke-dasharray: 1.000000,3.000000; stroke-dashoffset: 0.000000; opacity: 1.000000" clip-path="url(#p50431ccdcb28178602d99d9270004dde)" d="M444.000000 388.800000L444.000000 43.200000"/>
</g>
<g id="line2d23">
<g ><use style="fill: none; stroke: #000000; stroke-width: 0.500000; stroke-linejoin: round; stroke-linecap: butt;  opacity: 1.000000" xlink:href="#m30e32995789d870ad79a2e54c91cf9c6" x="444.000000" y="388.800000"/>
</g></g>
<g id="line2d24">
<g ><use style="fill: none; stroke: #000000; stroke-width: 0.500000; stroke-linejoin: round; stroke-linecap: butt;  opacity: 1.000000" xlink:href="#m9281cae24120827b11d5ea8a7ad3e96b" x="444.000000" y="43.200000"/>
</g></g>
<g id="text6">
<g style="fill: #000000; opacity: 1.000000" transform="translate(437.320312,401.706250)scale(0.120000)">
<use xlink:href="#c_ed3f3ed3ebfbd18bcb9c012009a68ad1"/>
<use xlink:href="#c_1260a2df50f305f3db244e29828f968e" x="63.623047"/>
</g>
</g>
</g>
<g id="xtick7">
<g id="line2d25">
<path style="fill: none; stroke: #000000; stroke-width: 0.500000; stroke-linejoin: round; stroke-linecap: butt; stroke-dasharray: 1.000000,3.000000; stroke-dashoffset: 0.000000; opacity: 1.000000" clip-path="url(#p50431ccdcb28178602d99d9270004dde)" d="M518.400000 388.800000L518.400000 43.200000"/>
</g>
<g id="line2d26">
<g ><use style="fill: none; stroke: #000000; stroke-width: 0.500000; stroke-linejoin: round; stroke-linecap: butt;  opacity: 1.000000" xlink:href="#m30e32995789d870ad79a2e54c91cf9c6" x="518.400000" y="388.800000"/>
</g></g>
<g id="line2d27">
<g ><use style="fill: none; stroke: #000000; stroke-width: 0.500000; stroke-linejoin: round; stroke-linecap: butt;  opacity: 1.000000" xlink:href="#m9281cae24120827b11d5ea8a7ad3e96b" x="518.400000" y="43.200000"/>
</g></g>
<g id="text7">
<defs>
<path id="c_3dcfa38a02242cb63ec6726c6e70be7a" d="M40.578125 -39.312500q7.078125 1.515625 11.046875 6.312500q3.984375 4.781250 3.984375 11.812500q0.000000 10.781250 -7.421875 16.703125q-7.421875 5.906250 -21.093750 5.906250q-4.578125 0.000000 -9.437500 -0.906250q-4.859375 -0.906250 -10.031250 -2.718750l0.000000 -9.515625q4.093750 2.390625 8.968750 3.609375q4.890625 1.218750 10.218750 1.218750q9.265625 0.000000 14.125000 -3.656250q4.859375 -3.656250 4.859375 -10.640625q0.000000 -6.453125 -4.515625 -10.078125q-4.515625 -3.640625 -12.562500 -3.640625l-8.500000 0.000000l0.000000 -8.109375l8.890625 0.000000q7.265625 0.000000 11.125000 -2.906250q3.859375 -2.906250 3.859375 -8.375000q0.000000 -5.609375 -3.984375 -8.609375q-3.968750 -3.015625 -11.390625 -3.015625q-4.062500 0.000000 -8.703125 0.890625q-4.640625 0.875000 -10.203125 2.718750l0.000000 -8.781250q5.625000 -1.562500 10.531250 -2.343750q4.906250 -0.781250 9.250000 -0.781250q11.234375 0.000000 17.765625 5.109375q6.546875 5.093750 6.546875 13.781250q0.000000 6.062500 -3.468750 10.234375q-3.468750 4.171875 -9.859375 5.781250"/>
</defs>
<g style="fill: #000000; opacity: 1.000000" transform="translate(511.618750,401.706250)scale(0.120000)">
<use xlink:href="#c_3dcfa38a02242cb63ec6726c6e70be7a"/>
<use xlink:href="#c_7a2040fe3b94fcd41d0a72c84e93b115" x="63.623047"/>
</g>
</g>
</g>
<g id="text8">
<defs>
<path id="c_a469f8ee191679fe73f3b765bd271597" d="M64.406250 -67.281250l0.000000 10.390625q-4.984375 -4.640625 -10.625000 -6.921875q-5.640625 -2.296875 -11.984375 -2.296875q-12.500000 0.000000 -19.140625 7.640625q-6.640625 7.640625 -6.640625 22.093750q0.000000 14.406250 6.640625 22.046875q6.640625 7.640625 19.140625 7.640625q6.343750 0.000000 11.984375 -2.296875q5.640625 -2.296875 10.625000 -6.937500l0.000000 10.312500q-5.171875 3.515625 -10.968750 5.281250q-5.781250 1.750000 -12.218750 1.750000q-16.562500 0.000000 -26.093750 -10.125000q-9.515625 -10.140625 -9.515625 -27.671875q0.000000 -17.578125 9.515625 -27.703125q9.531250 -10.140625 26.093750 -10.140625q6.531250 0.000000 12.312500 1.734375q5.796875 1.734375 10.875000 5.203125"/>
<path id="c_5099edb83619131346ae654950954dea" d="M9.421875 -75.984375l8.984375 0.000000l0.000000 75.984375l-8.984375 0.000000z"/>
<path id="c_6a63bda47b2f3da1cec6aadd80692cfe" d="M9.421875 -54.687500l8.984375 0.000000l0.000000 54.687500l-8.984375 0.000000zM9.421875 -75.984375l8.984375 0.000000l0.000000 11.390625l-8.984375 0.000000z"/>
<path id="c_d650c37394b681142a10dfc54356d478" d="M48.781250 -52.593750l0.000000 8.406250q-3.812500 -2.109375 -7.640625 -3.156250q-3.828125 -1.046875 -7.734375 -1.046875q-8.750000 0.000000 -13.593750 5.546875q-4.828125 5.531250 -4.828125 15.546875q0.000000 10.015625 4.828125 15.562500q4.843750 5.531250 13.593750 5.531250q3.906250 0.000000 7.734375 -1.046875q3.828125 -1.046875 7.640625 -3.156250l0.000000 8.312500q-3.765625 1.750000 -7.796875 2.625000q-4.015625 0.890625 -8.562500 0.890625q-12.359375 0.000000 -19.640625 -7.765625q-7.265625 -7.765625 -7.265625 -20.953125q0.000000 -13.375000 7.343750 -21.031250q7.359375 -7.671875 20.156250 -7.671875q4.140625 0.000000 8.093750 0.859375q3.953125 0.843750 7.671875 2.546875"/>
<path id="c_dcb78ab3124be785176d70a27dde1356" d="M9.078125 -75.984375l9.031250 0.000000l0.000000 44.875000l26.812500 -23.578125l11.468750 0.000000l-29.000000 25.578125l30.234375 29.109375l-11.718750 0.000000l-27.796875 -26.703125l0.000000 26.703125l-9.031250 0.000000z"/>
<path id="c_8e0810ad13fe20a2a87a2619799b154d" d="M44.281250 -53.078125l0.000000 8.500000q-3.796875 -1.953125 -7.906250 -2.921875q-4.093750 -0.984375 -8.500000 -0.984375q-6.687500 0.000000 -10.031250 2.046875q-3.343750 2.046875 -3.343750 6.156250q0.000000 3.125000 2.390625 4.906250q2.390625 1.781250 9.625000 3.390625l3.078125 0.687500q9.562500 2.046875 13.593750 5.781250q4.031250 3.734375 4.031250 10.421875q0.000000 7.625000 -6.031250 12.078125q-6.031250 4.437500 -16.578125 4.437500q-4.390625 0.000000 -9.156250 -0.859375q-4.765625 -0.859375 -10.031250 -2.562500l0.000000 -9.281250q4.984375 2.593750 9.812500 3.890625q4.828125 1.281250 9.578125 1.281250q6.343750 0.000000 9.750000 -2.171875q3.421875 -2.171875 3.421875 -6.125000q0.000000 -3.656250 -2.468750 -5.609375q-2.453125 -1.953125 -10.812500 -3.765625l-3.125000 -0.734375q-8.343750 -1.750000 -12.062500 -5.390625q-3.703125 -3.640625 -3.703125 -9.984375q0.000000 -7.718750 5.468750 -11.906250q5.468750 -4.203125 15.531250 -4.203125q4.968750 0.000000 9.359375 0.734375q4.406250 0.718750 8.109375 2.187500"/>
</defs>
<g style="fill: #000000; opacity: 1.000000" transform="translate(278.410937,416.003125)scale(0.120000)">
<use xlink:href="#c_a469f8ee191679fe73f3b765bd271597"/>
<use xlink:href="#c_5099edb83619131346ae654950954dea" x="69.824219"/>
<use xlink:href="#c_6a63bda47b2f3da1cec6aadd80692cfe" x="97.607422"/>
<use xlink:href="#c_d650c37394b681142a10dfc54356d478" x="125.390625"/>
<use xlink:href="#c_dcb78ab3124be785176d70a27dde1356" x="180.371094"/>
<use xlink:href="#c_8e0810ad13fe20a2a87a2619799b154d" x="238.281250"/>
</g>
</g>
</g>
<g id="matplotlib.axis2">
<g id="ytick1">
<g id="line2d28">
<path style="fill: none; stroke: #000000; stroke-width: 0.500000; stroke-linejoin: round; stroke-linecap: butt; stroke-dasharray: 1.000000,3.000000; stroke-dashoffset: 0.000000; opacity: 1.000000" clip-path="url(#p50431ccdcb28178602d99d9270004dde)" d="M72.000000 388.800000L518.400000 388.800000"/>
</g>
<g id="line2d29">
<defs><path id="m3400efa6b1638b3fea9e19e898273957" d="M0.000000 0.000000L4.000000 0.000000"/></defs>
<g ><use style="fill: none; stroke: #000000; stroke-width: 0.500000; stroke-linejoin: round; stroke-linecap: butt;  opacity: 1.000000" xlink:href="#m3400efa6b1638b3fea9e19e898273957" x="72.000000" y="388.800000"/>
</g></g>
<g id="line2d30">
<defs><path id="m20b58b2501143cb5e0a5e8f1ef6f1643" d="M0.000000 0.000000L-4.000000 0.000000"/></defs>
<g ><use style="fill: none; stroke: #000000; stroke-width: 0.500000; stroke-linejoin: round; stroke-linecap: butt;  opacity: 1.000000" xlink:href="#m20b58b2501143cb5e0a5e8f1ef6f1643" x="518.400000" y="388.800000"/>
</g></g>
<g id="text9">
<defs>
<path id="c_ed3e21196fb739f392806f09ca0594ef" d="M10.687500 -12.406250l10.312500 0.000000l0.000000 12.406250l-10.312500 0.000000z"/>
</defs>
<g style="fill: #000000; opacity: 1.000000" transform="translate(50.500000,393.167188)scale(0.120000)">
<use xlink:href="#c_7a2040fe3b94fcd41d0a72c84e93b115"/>
<use xlink:href="#c_ed3e21196fb739f392806f09ca0594ef" x="63.623047"/>
<use xlink:href="#c_7a2040fe3b94fcd41d0a72c84e93b115" x="95.410156"/>
</g>
</g>
</g>
<g id="ytick2">
<g id="line2d31">
<path style="fill: none; stroke: #000000; stroke-width: 0.500000; stroke-linejoin: round; stroke-linecap: butt; stroke-dasharray: 1.000000,3.000000; stroke-dashoffset: 0.000000; opacity: 1.000000" clip-path="url(#p50431ccdcb28178602d99d9270004dde)" d="M72.000000 319.680000L518.400000 319.680000"/>
</g>
<g id="line2d32">
<g ><use style="fill: none; stroke: #000000; stroke-width: 0.500000; stroke-linejoin: round; stroke-linecap: butt;  opacity: 1.000000" xlink:href="#m3400efa6b1638b3fea9e19e898273957" x="72.000000" y="319.680000"/>
</g></g>
<g id="line2d33">
<g ><use style="fill: none; stroke: #000000; stroke-width: 0.500000; stroke-linejoin: round; stroke-linecap: butt;  opacity: 1.000000" xlink:href="#m20b58b2501143cb5e0a5e8f1ef6f1643" x="518.400000" y="319.680000"/>
</g></g>
<g id="text10">
<g style="fill: #000000; opacity: 1.000000" transform="translate(50.906250,324.047188)scale(0.120000)">
<use xlink:href="#c_7a2040fe3b94fcd41d0a72c84e93b115"/>
<use xlink:href="#c_ed3e21196fb739f392806f09ca0594ef" x="63.623047"/>
<use xlink:href="#c_ed3f3ed3ebfbd18bcb9c012009a68ad1" x="95.410156"/>
</g>
</g>
</g>
<g id="ytick3">
<g id="line2d34">
<path style="fill: none; stroke: #000000; stroke-width: 0.500000; stroke-linejoin: round; stroke-linecap: butt; stroke-dasharray: 1.000000,3.000000; stroke-dashoffset: 0.000000; opacity: 1.000000" clip-path="url(#p50431ccdcb28178602d99d9270004dde)" d="M72.000000 250.560000L518.400000 250.560000"/>
</g>
<g id="line2d35">
<g ><use style="fill: none; stroke: #000000; stroke-width: 0.500000; stroke-linejoin: round; stroke-linecap: butt;  opacity: 1.000000" xlink:href="#m3400efa6b1638b3fea9e19e898273957" x="72.000000" y="250.560000"/>
</g></g>
<g id="line2d36">
<g ><use style="fill: none; stroke: #000000; stroke-width: 0.500000; stroke-linejoin: round; stroke-linecap: butt;  opacity: 1.000000" xlink:href="#m20b58b2501143cb5e0a5e8f1ef6f1643" x="518.400000" y="250.560000"/>
</g></g>
<g id="text11">
<defs>
<path id="c_a0416418d96557a09b8c1332d34883ba" d="M37.796875 -64.312500l-24.906250 38.921875l24.906250 0.000000zM35.203125 -72.906250l12.406250 0.000000l0.000000 47.515625l10.406250 0.000000l0.000000 8.203125l-10.406250 0.000000l0.000000 17.187500l-9.812500 0.000000l0.000000 -17.187500l-32.906250 0.000000l0.000000 -9.515625z"/>
</defs>
<g style="fill: #000000; opacity: 1.000000" transform="translate(50.375000,254.927188)scale(0.120000)">
<use xlink:href="#c_7a2040fe3b94fcd41d0a72c84e93b115"/>
<use xlink:href="#c_ed3e21196fb739f392806f09ca0594ef" x="63.623047"/>
<use xlink:href="#c_a0416418d96557a09b8c1332d34883ba" x="95.410156"/>
</g>
</g>
</g>
<g id="ytick4">
<g id="line2d37">
<path style="fill: none; stroke: #000000; stroke-width: 0.500000; stroke-linejoin: round; stroke-linecap: butt; stroke-dasharray: 1.000000,3.000000; stroke-dashoffset: 0.000000; opacity: 1.000000" clip-path="url(#p50431ccdcb28178602d99d9270004dde)" d="M72.000000 181.440000L518.400000 181.440000"/>
</g>
<g id="line2d38">
<g ><use style="fill: none; stroke: #000000; stroke-width: 0.500000; stroke-linejoin: round; stroke-linecap: butt;  opacity: 1.000000" xlink:href="#m3400efa6b1638b3fea9e19e898273957" x="72.000000" y="181.440000"/>
</g></g>
<g id="line2d39">
<g ><use style="fill: none; stroke: #000000; stroke-width: 0.500000; stroke-linejoin: round; stroke-linecap: butt;  opacity: 1.000000" xlink:href="#m20b58b2501143cb5e0a5e8f1ef6f1643" x="518.400000" y="181.440000"/>
</g></g>
<g id="text12">
<defs>
<path id="c_cc8d6d580d1b10c8632f7a42cd53db8a" d="M33.015625 -40.375000q-6.640625 0.000000 -10.531250 4.546875q-3.875000 4.531250 -3.875000 12.437500q0.000000 7.859375 3.875000 12.437500q3.890625 4.562500 10.531250 4.562500q6.640625 0.000000 10.515625 -4.562500q3.875000 -4.578125 3.875000 -12.437500q0.000000 -7.906250 -3.875000 -12.437500q-3.875000 -4.546875 -10.515625 -4.546875M52.593750 -71.296875l0.000000 8.984375q-3.718750 -1.750000 -7.500000 -2.671875q-3.781250 -0.937500 -7.500000 -0.937500q-9.765625 0.000000 -14.921875 6.593750q-5.140625 6.593750 -5.875000 19.921875q2.875000 -4.250000 7.218750 -6.515625q4.359375 -2.265625 9.578125 -2.265625q10.984375 0.000000 17.359375 6.671875q6.375000 6.656250 6.375000 18.125000q0.000000 11.234375 -6.640625 18.031250q-6.640625 6.781250 -17.671875 6.781250q-12.656250 0.000000 -19.343750 -9.687500q-6.687500 -9.703125 -6.687500 -28.109375q0.000000 -17.281250 8.203125 -27.562500q8.203125 -10.281250 22.015625 -10.281250q3.718750 0.000000 7.500000 0.734375q3.781250 0.734375 7.890625 2.187500"/>
</defs>
<g style="fill: #000000; opacity: 1.000000" transform="translate(50.468750,185.807187)scale(0.120000)">
<use xlink:href="#c_7a2040fe3b94fcd41d0a72c84e93b115"/>
<use xlink:href="#c_ed3e21196fb739f392806f09ca0594ef" x="63.623047"/>
<use xlink:href="#c_cc8d6d580d1b10c8632f7a42cd53db8a" x="95.410156"/>
</g>
</g>
</g>
<g id="ytick5">
<g id="line2d40">
<path style="fill: none; stroke: #000000; stroke-width: 0.500000; stroke-linejoin: round; stroke-linecap: butt; stroke-dasharray: 1.000000,3.000000; stroke-dashoffset: 0.000000; opacity: 1.000000" clip-path="url(#p50431ccdcb28178602d99d9270004dde)" d="M72.000000 112.320000L518.400000 112.320000"/>
</g>
<g id="line2d41">
<g ><use style="fill: none; stroke: #000000; stroke-width: 0.500000; stroke-linejoin: round; stroke-linecap: butt;  opacity: 1.000000" xlink:href="#m3400efa6b1638b3fea9e19e898273957" x="72.000000" y="112.320000"/>
</g></g>
<g id="line2d42">
<g ><use style="fill: none; stroke: #000000; stroke-width: 0.500000; stroke-linejoin: round; stroke-linecap: butt;  opacity: 1.000000" xlink:href="#m20b58b2501143cb5e0a5e8f1ef6f1643" x="518.400000" y="112.320000"/>
</g></g>
<g id="text13">
<defs>
<path id="c_bef35738d52871942e50b9de9b122bab" d="M31.781250 -34.625000q-7.031250 0.000000 -11.062500 3.765625q-4.015625 3.765625 -4.015625 10.343750q0.000000 6.593750 4.015625 10.359375q4.031250 3.765625 11.062500 3.765625q7.031250 0.000000 11.078125 -3.781250q4.062500 -3.796875 4.062500 -10.343750q0.000000 -6.578125 -4.031250 -10.343750q-4.015625 -3.765625 -11.109375 -3.765625M21.921875 -38.812500q-6.343750 -1.562500 -9.890625 -5.906250q-3.531250 -4.359375 -3.531250 -10.609375q0.000000 -8.734375 6.218750 -13.812500q6.234375 -5.078125 17.062500 -5.078125q10.890625 0.000000 17.093750 5.078125q6.203125 5.078125 6.203125 13.812500q0.000000 6.250000 -3.546875 10.609375q-3.531250 4.343750 -9.828125 5.906250q7.125000 1.656250 11.093750 6.500000q3.984375 4.828125 3.984375 11.796875q0.000000 10.609375 -6.468750 16.281250q-6.468750 5.656250 -18.531250 5.656250q-12.046875 0.000000 -18.531250 -5.656250q-6.468750 -5.671875 -6.468750 -16.281250q0.000000 -6.968750 4.000000 -11.796875q4.015625 -4.843750 11.140625 -6.500000M18.312500 -54.390625q0.000000 5.656250 3.531250 8.828125q3.546875 3.171875 9.937500 3.171875q6.359375 0.000000 9.937500 -3.171875q3.593750 -3.171875 3.593750 -8.828125q0.000000 -5.671875 -3.593750 -8.843750q-3.578125 -3.171875 -9.937500 -3.171875q-6.390625 0.000000 -9.937500 3.171875q-3.531250 3.171875 -3.531250 8.843750"/>
</defs>
<g style="fill: #000000; opacity: 1.000000" transform="translate(50.531250,116.687187)scale(0.120000)">
<use xlink:href="#c_7a2040fe3b94fcd41d0a72c84e93b115"/>
<use xlink:href="#c_ed3e21196fb739f392806f09ca0594ef" x="63.623047"/>
<use xlink:href="#c_bef35738d52871942e50b9de9b122bab" x="95.410156"/>
</g>
</g>
</g>
<g id="ytick6">
<g id="line2d43">
<path style="fill: none; stroke: #000000; stroke-width: 0.500000; stroke-linejoin: round; stroke-linecap: butt; stroke-dasharray: 1.000000,3.000000; stroke-dashoffset: 0.000000; opacity: 1.000000" clip-path="url(#p50431ccdcb28178602d99d9270004dde)" d="M72.000000 43.200000L518.400000 43.200000"/>
</g>
<g id="line2d44">
<g ><use style="fill: none; stroke: #000000; stroke-width: 0.500000; stroke-linejoin: round; stroke-linecap: butt;  opacity: 1.000000" xlink:href="#m3400efa6b1638b3fea9e19e898273957" x="72.000000" y="43.200000"/>
</g></g>
<g id="line2d45">
<g ><use style="fill: none; stroke: #000000; stroke-width: 0.500000; stroke-linejoin: round; stroke-linecap: butt;  opacity: 1.000000" xlink:href="#m20b58b2501143cb5e0a5e8f1ef6f1643" x="518.400000" y="43.200000"/>
</g></g>
<g id="text14">
<g style="fill: #000000; opacity: 1.000000" transform="translate(51.015625,47.567187)scale(0.120000)">
<use xlink:href="#c_42baa63129a918535c52adb20d687ea7"/>
<use xlink:href="#c_ed3e21196fb739f392806f09ca0594ef" x="63.623047"/>
<use xlink:href="#c_7a2040fe3b94fcd41d0a72c84e93b115" x="95.410156"/>
</g>
</g>
</g>
<g id="text15">
<defs>
<path id="c_f0b2f1db24a99c7a6a1fa56820ca5a8a" d="M8.687500 -72.906250l9.921875 0.000000l0.000000 44.296875q0.000000 11.718750 4.234375 16.875000q4.250000 5.140625 13.781250 5.140625q9.468750 0.000000 13.718750 -5.140625q4.250000 -5.156250 4.250000 -16.875000l0.000000 -44.296875l9.906250 0.000000l0.000000 45.515625q0.000000 14.250000 -7.062500 21.531250q-7.046875 7.281250 -20.812500 7.281250q-13.828125 0.000000 -20.890625 -7.281250q-7.046875 -7.281250 -7.046875 -21.531250z"/>
<path id="c_0bce5afba2dc6b9024b26277c38ad8e8" d="M56.203125 -29.593750l0.000000 4.390625l-41.312500 0.000000q0.593750 9.281250 5.593750 14.140625q5.000000 4.859375 13.937500 4.859375q5.171875 0.000000 10.031250 -1.265625q4.859375 -1.265625 9.656250 -3.812500l0.000000 8.500000q-4.843750 2.046875 -9.921875 3.125000q-5.078125 1.078125 -10.296875 1.078125q-13.093750 0.000000 -20.734375 -7.609375q-7.640625 -7.625000 -7.640625 -20.625000q0.000000 -13.421875 7.250000 -21.296875q7.250000 -7.890625 19.562500 -7.890625q11.031250 0.000000 17.453125 7.109375q6.421875 7.093750 6.421875 19.296875M47.218750 -32.234375q-0.093750 -7.359375 -4.125000 -11.750000q-4.031250 -4.406250 -10.671875 -4.406250q-7.515625 0.000000 -12.031250 4.250000q-4.515625 4.250000 -5.203125 11.968750z"/>
<path id="c_73b12fe3945075d29fe0cc9a468fa31e" d="M37.109375 -75.984375l0.000000 7.484375l-8.593750 0.000000q-4.828125 0.000000 -6.718750 1.953125q-1.875000 1.953125 -1.875000 7.031250l0.000000 4.828125l14.796875 0.000000l0.000000 6.984375l-14.796875 0.000000l0.000000 47.703125l-9.031250 0.000000l0.000000 -47.703125l-8.593750 0.000000l0.000000 -6.984375l8.593750 0.000000l0.000000 -3.812500q0.000000 -9.125000 4.250000 -13.296875q4.250000 -4.187500 13.468750 -4.187500z"/>
<path id="c_3b515ad41f960e225ec85275856806ca" d="M8.500000 -21.578125l0.000000 -33.109375l8.984375 0.000000l0.000000 32.765625q0.000000 7.765625 3.015625 11.656250q3.031250 3.875000 9.093750 3.875000q7.265625 0.000000 11.484375 -4.640625q4.234375 -4.640625 4.234375 -12.656250l0.000000 -31.000000l8.984375 0.000000l0.000000 54.687500l-8.984375 0.000000l0.000000 -8.406250q-3.265625 4.984375 -7.593750 7.406250q-4.312500 2.421875 -10.031250 2.421875q-9.421875 0.000000 -14.312500 -5.859375q-4.875000 -5.859375 -4.875000 -17.140625M31.109375 -56.000000z"/>
<path id="c_d41d8cd98f00b204e9800998ecf8427e" d=""/>
<path id="c_01d93a582460e35a7945ca50d148ffeb" d="M34.281250 -27.484375q-10.890625 0.000000 -15.093750 2.484375q-4.203125 2.484375 -4.203125 8.500000q0.000000 4.781250 3.156250 7.593750q3.156250 2.796875 8.562500 2.796875q7.484375 0.000000 12.000000 -5.296875q4.515625 -5.296875 4.515625 -14.078125l0.000000 -2.000000zM52.203125 -31.203125l0.000000 31.203125l-8.984375 0.000000l0.000000 -8.296875q-3.078125 4.968750 -7.671875 7.343750q-4.593750 2.375000 -11.234375 2.375000q-8.390625 0.000000 -13.359375 -4.718750q-4.953125 -4.718750 -4.953125 -12.625000q0.000000 -9.218750 6.171875 -13.906250q6.187500 -4.687500 18.437500 -4.687500l12.609375 0.000000l0.000000 -0.890625q0.000000 -6.203125 -4.078125 -9.593750q-4.078125 -3.390625 -11.453125 -3.390625q-4.687500 0.000000 -9.140625 1.125000q-4.437500 1.125000 -8.531250 3.375000l0.000000 -8.312500q4.921875 -1.906250 9.562500 -2.843750q4.640625 -0.953125 9.031250 -0.953125q11.875000 0.000000 17.734375 6.156250q5.859375 6.140625 5.859375 18.640625"/>
<path id="c_6ec8d5749226675394676a5d2a3b468b" d="M41.109375 -46.296875q-1.515625 -0.875000 -3.296875 -1.281250q-1.781250 -0.421875 -3.921875 -0.421875q-7.625000 0.000000 -11.703125 4.953125q-4.078125 4.953125 -4.078125 14.234375l0.000000 28.812500l-9.031250 0.000000l0.000000 -54.687500l9.031250 0.000000l0.000000 8.500000q2.843750 -4.984375 7.375000 -7.390625q4.546875 -2.421875 11.046875 -2.421875q0.921875 0.000000 2.046875 0.125000q1.125000 0.109375 2.484375 0.359375z"/>
<path id="c_d821beae607506e87470f334d9ff47af" d="M45.406250 -46.390625l0.000000 -29.593750l8.984375 0.000000l0.000000 75.984375l-8.984375 0.000000l0.000000 -8.203125q-2.828125 4.875000 -7.156250 7.250000q-4.312500 2.375000 -10.375000 2.375000q-9.906250 0.000000 -16.140625 -7.906250q-6.218750 -7.921875 -6.218750 -20.812500q0.000000 -12.890625 6.218750 -20.796875q6.234375 -7.906250 16.140625 -7.906250q6.062500 0.000000 10.375000 2.375000q4.328125 2.359375 7.156250 7.234375M14.796875 -27.296875q0.000000 9.906250 4.078125 15.546875q4.078125 5.640625 11.203125 5.640625q7.125000 0.000000 11.218750 -5.640625q4.109375 -5.640625 4.109375 -15.546875q0.000000 -9.906250 -4.109375 -15.546875q-4.093750 -5.640625 -11.218750 -5.640625q-7.125000 0.000000 -11.203125 5.640625q-4.078125 5.640625 -4.078125 15.546875"/>
<path id="c_9c6d5cbc59c6231647eb409cc6b37bb3" d="M25.390625 -72.906250l8.296875 0.000000l-25.390625 82.187500l-8.296875 0.000000z"/>
</defs>
<g style="fill: #000000; opacity: 1.000000" transform="translate(45.375000,269.031250)rotate(-90.0)scale(0.120000)">
<use xlink:href="#c_f0b2f1db24a99c7a6a1fa56820ca5a8a"/>
<use xlink:href="#c_8e0810ad13fe20a2a87a2619799b154d" x="73.193359"/>
<use xlink:href="#c_0bce5afba2dc6b9024b26277c38ad8e8" x="125.292969"/>
<use xlink:href="#c_73b12fe3945075d29fe0cc9a468fa31e" x="186.816406"/>
<use xlink:href="#c_3b515ad41f960e225ec85275856806ca" x="222.021484"/>
<use xlink:href="#c_5099edb83619131346ae654950954dea" x="285.400391"/>
<use xlink:href="#c_d41d8cd98f00b204e9800998ecf8427e" x="313.183594"/>
<use xlink:href="#c_a469f8ee191679fe73f3b765bd271597" x="344.970703"/>
<use xlink:href="#c_01d93a582460e35a7945ca50d148ffeb" x="414.794922"/>
<use xlink:href="#c_6ec8d5749226675394676a5d2a3b468b" x="476.074219"/>
<use xlink:href="#c_d821beae607506e87470f334d9ff47af" x="515.437500"/>
<use xlink:href="#c_8e0810ad13fe20a2a87a2619799b154d" x="578.914062"/>
<use xlink:href="#c_9c6d5cbc59c6231647eb409cc6b37bb3" x="631.013672"/>
<use xlink:href="#c_a469f8ee191679fe73f3b765bd271597" x="664.705078"/>
<use xlink:href="#c_5099edb83619131346ae654950954dea" x="734.529297"/>
<use xlink:href="#c_6a63bda47b2f3da1cec6aadd80692cfe" x="762.312500"/>
<use xlink:href="#c_d650c37394b681142a10dfc54356d478" x="790.095703"/>
<use xlink:href="#c_dcb78ab3124be785176d70a27dde1356" x="845.076172"/>
</g>
</g>
</g>
<g id="patch3">
<path style="fill: none; stroke: #000000; stroke-width: 1.000000; stroke-linejoin: round; stroke-linecap: square;  opacity: 1.000000"  d="M72.000000 43.200000L518.400000 43.200000"/>
</g>
<g id="patch4">
<path style="fill: none; stroke: #000000; stroke-width: 1.000000; stroke-linejoin: round; stroke-linecap: square;  opacity: 1.000000"  d="M518.400000 388.800000L518.400000 43.200000"/>
</g>
<g id="patch5">
<path style="fill: none; stroke: #000000; stroke-width: 1.000000; stroke-linejoin: round; stroke-linecap: square;  opacity: 1.000000"  d="M72.000000 388.800000L518.400000 388.800000"/>
</g>
<g id="patch6">
<path style="fill: none; stroke: #000000; stroke-width: 1.000000; stroke-linejoin: round; stroke-linecap: square;  opacity: 1.000000"  d="M72.000000 388.800000L72.000000 43.200000"/>
</g>
<g id="text16">
<defs>
<path id="c_46f5d86430594d4affc2299f73adabe3" d="M39.406250 -66.218750q-10.750000 0.000000 -17.078125 8.015625q-6.312500 8.000000 -6.312500 21.828125q0.000000 13.765625 6.312500 21.781250q6.328125 8.000000 17.078125 8.000000q10.734375 0.000000 17.015625 -8.000000q6.281250 -8.015625 6.281250 -21.781250q0.000000 -13.828125 -6.281250 -21.828125q-6.281250 -8.015625 -17.015625 -8.015625M53.218750 -1.312500l13.000000 14.203125l-11.921875 0.000000l-10.796875 -11.671875q-1.609375 0.093750 -2.468750 0.140625q-0.843750 0.062500 -1.625000 0.062500q-15.375000 0.000000 -24.593750 -10.281250q-9.203125 -10.281250 -9.203125 -27.515625q0.000000 -17.281250 9.203125 -27.562500q9.218750 -10.281250 24.593750 -10.281250q15.328125 0.000000 24.500000 10.281250q9.187500 10.281250 9.187500 27.562500q0.000000 12.687500 -5.109375 21.734375q-5.093750 9.031250 -14.765625 13.328125"/>
<path id="c_0f8c41144cfbf448378cb6fd1cc8e549" d="M18.312500 -70.218750l0.000000 15.531250l18.500000 0.000000l0.000000 6.984375l-18.500000 0.000000l0.000000 29.687500q0.000000 6.687500 1.828125 8.593750q1.828125 1.906250 7.453125 1.906250l9.218750 0.000000l0.000000 7.515625l-9.218750 0.000000q-10.406250 0.000000 -14.359375 -3.875000q-3.953125 -3.890625 -3.953125 -14.140625l0.000000 -29.687500l-6.593750 0.000000l0.000000 -6.984375l6.593750 0.000000l0.000000 -15.531250z"/>
<path id="c_3fe22c4af425ac970aec982ae9662abe" d="M32.171875 5.078125q-3.796875 9.765625 -7.421875 12.734375q-3.609375 2.984375 -9.656250 2.984375l-7.187500 0.000000l0.000000 -7.515625l5.281250 0.000000q3.703125 0.000000 5.750000 -1.765625q2.062500 -1.750000 4.546875 -8.296875l1.609375 -4.093750l-22.109375 -53.812500l9.515625 0.000000l17.093750 42.765625l17.093750 -42.765625l9.515625 0.000000z"/>
<path id="c_ff9441f72805bc441fcb0bfe0d774f13" d="M19.671875 -64.796875l0.000000 56.687500l11.921875 0.000000q15.093750 0.000000 22.093750 -6.828125q7.000000 -6.843750 7.000000 -21.593750q0.000000 -14.640625 -7.000000 -21.453125q-7.000000 -6.812500 -22.093750 -6.812500zM9.812500 -72.906250l20.265625 0.000000q21.187500 0.000000 31.093750 8.812500q9.921875 8.812500 9.921875 27.562500q0.000000 18.859375 -9.968750 27.703125q-9.953125 8.828125 -31.046875 8.828125l-20.265625 0.000000z"/>
<path id="c_57adaa7083d7229075db8bc2c5b2febe" d="M4.203125 -54.687500l8.984375 0.000000l11.234375 42.671875l11.171875 -42.671875l10.593750 0.000000l11.234375 42.671875l11.187500 -42.671875l8.984375 0.000000l-14.312500 54.687500l-10.593750 0.000000l-11.765625 -44.828125l-11.812500 44.828125l-10.609375 0.000000z"/>
</defs>
<g style="fill: #000000; opacity: 1.000000" transform="translate(245.051562,35.293750)scale(0.144000)">
<use xlink:href="#c_46f5d86430594d4affc2299f73adabe3"/>
<use xlink:href="#c_3b515ad41f960e225ec85275856806ca" x="78.710938"/>
<use xlink:href="#c_01d93a582460e35a7945ca50d148ffeb" x="142.089844"/>
<use xlink:href="#c_5099edb83619131346ae654950954dea" x="203.369141"/>
<use xlink:href="#c_6a63bda47b2f3da1cec6aadd80692cfe" x="231.152344"/>
<use xlink:href="#c_0f8c41144cfbf448378cb6fd1cc8e549" x="258.935547"/>
<use xlink:href="#c_3fe22c4af425ac970aec982ae9662abe" x="298.144531"/>
<use xlink:href="#c_d41d8cd98f00b204e9800998ecf8427e" x="357.324219"/>
<use xlink:href="#c_ff9441f72805bc441fcb0bfe0d774f13" x="389.111328"/>
<use xlink:href="#c_6ec8d5749226675394676a5d2a3b468b" x="466.113281"/>
<use xlink:href="#c_01d93a582460e35a7945ca50d148ffeb" x="507.226562"/>
<use xlink:href="#c_57adaa7083d7229075db8bc2c5b2febe" x="568.505859"/>
<use xlink:href="#c_8e0810ad13fe20a2a87a2619799b154d" x="650.292969"/>
</g>
</g>
<g id="legend1">
<g id="patch7">
<path style="fill: #ffffff; stroke: #000000; stroke-width: 1.000000; stroke-linejoin: round; stroke-linecap: square;  opacity: 1.000000"  d="M308.110000 381.600000L511.200000 381.600000L511.200000 252.798750
L308.110000 252.798750L308.110000 381.600000z"/>
</g>
<g id="line2d46">
<path style="fill: none; stroke: #008000; stroke-width: 3.000000; stroke-linejoin: round; stroke-linecap: butt; stroke-dasharray: 6.000000,6.000000; stroke-dashoffset: 0.000000; opacity: 1.000000"  d="M318.190000 264.159375L338.350000 264.159375"/>
</g>
<g id="line2d47">
</g>
<g id="text17">
<defs>
<path id="c_c48ceabac27bf136feba2f4bf2716ab6" d="M2.984375 -54.687500l9.515625 0.000000l17.093750 45.890625l17.093750 -45.890625l9.515625 0.000000l-20.515625 54.687500l-12.203125 0.000000z"/>
</defs>
<g style="fill: #000000; opacity: 1.000000" transform="translate(354.190000,269.199375)scale(0.144000)">
<use xlink:href="#c_0bce5afba2dc6b9024b26277c38ad8e8"/>
<use xlink:href="#c_c48ceabac27bf136feba2f4bf2716ab6" x="61.523438"/>
<use xlink:href="#c_0f8c41144cfbf448378cb6fd1cc8e549" x="120.703125"/>
<use xlink:href="#c_8e0810ad13fe20a2a87a2619799b154d" x="159.912109"/>
</g>
</g>
<g id="line2d48">
<path style="fill: none; stroke: #008000; stroke-width: 3.000000; stroke-linejoin: round; stroke-linecap: square;  opacity: 1.000000"  d="M318.190000 284.906250L338.350000 284.906250"/>
</g>
<g id="line2d49">
</g>
<g id="text18">
<defs>
<path id="c_5190dbc1cdbe53cbdd605e1721869cb7" d="M46.000000 -62.703125l0.000000 27.203125l27.187500 0.000000l0.000000 8.296875l-27.187500 0.000000l0.000000 27.203125l-8.203125 0.000000l0.000000 -27.203125l-27.203125 0.000000l0.000000 -8.296875l27.203125 0.000000l0.000000 -27.203125z"/>
</defs>
<g style="fill: #000000; opacity: 1.000000" transform="translate(354.190000,289.946250)scale(0.144000)">
<use xlink:href="#c_0bce5afba2dc6b9024b26277c38ad8e8"/>
<use xlink:href="#c_c48ceabac27bf136feba2f4bf2716ab6" x="61.523438"/>
<use xlink:href="#c_0f8c41144cfbf448378cb6fd1cc8e549" x="120.703125"/>
<use xlink:href="#c_8e0810ad13fe20a2a87a2619799b154d" x="159.912109"/>
<use xlink:href="#c_5190dbc1cdbe53cbdd605e1721869cb7" x="212.011719"/>
<use xlink:href="#c_d821beae607506e87470f334d9ff47af" x="295.800781"/>
<use xlink:href="#c_6ec8d5749226675394676a5d2a3b468b" x="359.277344"/>
<use xlink:href="#c_01d93a582460e35a7945ca50d148ffeb" x="400.390625"/>
<use xlink:href="#c_57adaa7083d7229075db8bc2c5b2febe" x="461.669922"/>
</g>
</g>
<g id="line2d50">
<path style="fill: none; stroke: #bfbf00; stroke-width: 3.000000; stroke-linejoin: round; stroke-linecap: square;  opacity: 1.000000"  d="M318.190000 305.653125L338.350000 305.653125"/>
</g>
<g id="line2d51">
</g>
<g id="text19">
<defs>
<path id="c_f15a64fcd463ef4629c48bab42cde24c" d="M18.109375 -8.203125l0.000000 29.000000l-9.031250 0.000000l0.000000 -75.484375l9.031250 0.000000l0.000000 8.296875q2.843750 -4.875000 7.156250 -7.234375q4.328125 -2.375000 10.328125 -2.375000q9.968750 0.000000 16.187500 7.906250q6.234375 7.906250 6.234375 20.796875q0.000000 12.890625 -6.234375 20.812500q-6.218750 7.906250 -16.187500 7.906250q-6.000000 0.000000 -10.328125 -2.375000q-4.312500 -2.375000 -7.156250 -7.250000M48.687500 -27.296875q0.000000 -9.906250 -4.078125 -15.546875q-4.078125 -5.640625 -11.203125 -5.640625q-7.140625 0.000000 -11.218750 5.640625q-4.078125 5.640625 -4.078125 15.546875q0.000000 9.906250 4.078125 15.546875q4.078125 5.640625 11.218750 5.640625q7.125000 0.000000 11.203125 -5.640625q4.078125 -5.640625 4.078125 -15.546875"/>
</defs>
<g style="fill: #000000; opacity: 1.000000" transform="translate(354.190000,310.693125)scale(0.144000)">
<use xlink:href="#c_f15a64fcd463ef4629c48bab42cde24c"/>
<use xlink:href="#c_c48ceabac27bf136feba2f4bf2716ab6" x="63.476562"/>
<use xlink:href="#c_f15a64fcd463ef4629c48bab42cde24c" x="122.656250"/>
<use xlink:href="#c_5190dbc1cdbe53cbdd605e1721869cb7" x="186.132812"/>
<use xlink:href="#c_0bce5afba2dc6b9024b26277c38ad8e8" x="269.921875"/>
<use xlink:href="#c_c48ceabac27bf136feba2f4bf2716ab6" x="331.445312"/>
<use xlink:href="#c_0f8c41144cfbf448378cb6fd1cc8e549" x="390.625000"/>
<use xlink:href="#c_8e0810ad13fe20a2a87a2619799b154d" x="429.833984"/>
<use xlink:href="#c_5190dbc1cdbe53cbdd605e1721869cb7" x="481.933594"/>
<use xlink:href="#c_d821beae607506e87470f334d9ff47af" x="565.722656"/>
<use xlink:href="#c_6ec8d5749226675394676a5d2a3b468b" x="629.199219"/>
<use xlink:href="#c_01d93a582460e35a7945ca50d148ffeb" x="670.312500"/>
<use xlink:href="#c_57adaa7083d7229075db8bc2c5b2febe" x="731.591797"/>
</g>
</g>
<g id="line2d52">
<path style="fill: none; stroke: #bfbf00; stroke-width: 3.000000; stroke-linejoin: round; stroke-linecap: butt; stroke-dasharray: 6.000000,6.000000; stroke-dashoffset: 0.000000; opacity: 1.000000"  d="M318.190000 326.400000L338.350000 326.400000"/>
</g>
<g id="line2d53">
</g>
<g id="text20">
<defs>
<path id="c_1e6263c731c474ef67a09469452f0b99" d="M11.718750 -12.406250l10.296875 0.000000l0.000000 12.406250l-10.296875 0.000000zM11.718750 -51.703125l10.296875 0.000000l0.000000 12.390625l-10.296875 0.000000z"/>
</defs>
<g style="fill: #000000; opacity: 1.000000" transform="translate(354.190000,331.440000)scale(0.144000)">
<use xlink:href="#c_dcb78ab3124be785176d70a27dde1356"/>
<use xlink:href="#c_01d93a582460e35a7945ca50d148ffeb" x="56.160156"/>
<use xlink:href="#c_0f8c41144cfbf448378cb6fd1cc8e549" x="117.439453"/>
<use xlink:href="#c_0bce5afba2dc6b9024b26277c38ad8e8" x="156.648437"/>
<use xlink:href="#c_1e6263c731c474ef67a09469452f0b99" x="218.171875"/>
<use xlink:href="#c_f15a64fcd463ef4629c48bab42cde24c" x="251.863281"/>
<use xlink:href="#c_c48ceabac27bf136feba2f4bf2716ab6" x="315.339844"/>
<use xlink:href="#c_f15a64fcd463ef4629c48bab42cde24c" x="374.519531"/>
<use xlink:href="#c_5190dbc1cdbe53cbdd605e1721869cb7" x="437.996094"/>
<use xlink:href="#c_0bce5afba2dc6b9024b26277c38ad8e8" x="521.785156"/>
<use xlink:href="#c_c48ceabac27bf136feba2f4bf2716ab6" x="583.308594"/>
<use xlink:href="#c_0f8c41144cfbf448378cb6fd1cc8e549" x="642.488281"/>
<use xlink:href="#c_8e0810ad13fe20a2a87a2619799b154d" x="681.697266"/>
<use xlink:href="#c_5190dbc1cdbe53cbdd605e1721869cb7" x="733.796875"/>
<use xlink:href="#c_d821beae607506e87470f334d9ff47af" x="817.585938"/>
<use xlink:href="#c_6ec8d5749226675394676a5d2a3b468b" x="881.062500"/>
<use xlink:href="#c_01d93a582460e35a7945ca50d148ffeb" x="922.175781"/>
<use xlink:href="#c_57adaa7083d7229075db8bc2c5b2febe" x="983.455078"/>
</g>
</g>
<g id="line2d54">
<path style="fill: none; stroke: #0000ff; stroke-width: 3.000000; stroke-linejoin: round; stroke-linecap: butt; stroke-dasharray: 6.000000,6.000000; stroke-dashoffset: 0.000000; opacity: 1.000000"  d="M318.190000 347.146875L338.350000 347.146875"/>
</g>
<g id="line2d55">
</g>
<g id="text21">
<defs>
<path id="c_f05dd90d41f04bb96ef1ca503cc2044b" d="M30.609375 -48.390625q-7.218750 0.000000 -11.421875 5.640625q-4.203125 5.640625 -4.203125 15.453125q0.000000 9.812500 4.171875 15.453125q4.187500 5.640625 11.453125 5.640625q7.187500 0.000000 11.375000 -5.656250q4.203125 -5.671875 4.203125 -15.437500q0.000000 -9.718750 -4.203125 -15.406250q-4.187500 -5.687500 -11.375000 -5.687500M30.609375 -56.000000q11.718750 0.000000 18.406250 7.625000q6.703125 7.609375 6.703125 21.078125q0.000000 13.421875 -6.703125 21.078125q-6.687500 7.640625 -18.406250 7.640625q-11.765625 0.000000 -18.437500 -7.640625q-6.656250 -7.656250 -6.656250 -21.078125q0.000000 -13.468750 6.656250 -21.078125q6.671875 -7.625000 18.437500 -7.625000"/>
<path id="c_fe791a90f5471e2ab20a5ed41a7fa451" d="M54.890625 -33.015625l0.000000 33.015625l-8.984375 0.000000l0.000000 -32.718750q0.000000 -7.765625 -3.031250 -11.609375q-3.031250 -3.859375 -9.078125 -3.859375q-7.281250 0.000000 -11.484375 4.640625q-4.203125 4.625000 -4.203125 12.640625l0.000000 30.906250l-9.031250 0.000000l0.000000 -54.687500l9.031250 0.000000l0.000000 8.500000q3.234375 -4.937500 7.593750 -7.375000q4.375000 -2.437500 10.093750 -2.437500q9.421875 0.000000 14.250000 5.828125q4.843750 5.828125 4.843750 17.156250"/>
</defs>
<g style="fill: #000000; opacity: 1.000000" transform="translate(354.190000,352.186875)scale(0.144000)">
<use xlink:href="#c_f15a64fcd463ef4629c48bab42cde24c"/>
<use xlink:href="#c_6ec8d5749226675394676a5d2a3b468b" x="63.476562"/>
<use xlink:href="#c_f05dd90d41f04bb96ef1ca503cc2044b" x="102.339844"/>
<use xlink:href="#c_d650c37394b681142a10dfc54356d478" x="163.521484"/>
<use xlink:href="#c_f05dd90d41f04bb96ef1ca503cc2044b" x="218.501953"/>
<use xlink:href="#c_fe791a90f5471e2ab20a5ed41a7fa451" x="279.683594"/>
<use xlink:href="#c_8e0810ad13fe20a2a87a2619799b154d" x="343.062500"/>
</g>
</g>
<g id="line2d56">
<path style="fill: none; stroke: #0000ff; stroke-width: 3.000000; stroke-linejoin: round; stroke-linecap: square;  opacity: 1.000000"  d="M318.190000 367.893750L338.350000 367.893750"/>
</g>
<g id="line2d57">
</g>
<g id="text22">
<g style="fill: #000000; opacity: 1.000000" transform="translate(354.190000,372.933750)scale(0.144000)">
<use xlink:href="#c_0bce5afba2dc6b9024b26277c38ad8e8"/>
<use xlink:href="#c_c48ceabac27bf136feba2f4bf2716ab6" x="61.523438"/>
<use xlink:href="#c_0f8c41144cfbf448378cb6fd1cc8e549" x="120.703125"/>
<use xlink:href="#c_8e0810ad13fe20a2a87a2619799b154d" x="159.912109"/>
<use xlink:href="#c_5190dbc1cdbe53cbdd605e1721869cb7" x="212.011719"/>
<use xlink:href="#c_f15a64fcd463ef4629c48bab42cde24c" x="295.800781"/>
<use xlink:href="#c_6ec8d5749226675394676a5d2a3b468b" x="359.277344"/>
<use xlink:href="#c_f05dd90d41f04bb96ef1ca503cc2044b" x="398.140625"/>
<use xlink:href="#c_d650c37394b681142a10dfc54356d478" x="459.322266"/>
<use xlink:href="#c_f05dd90d41f04bb96ef1ca503cc2044b" x="514.302734"/>
<use xlink:href="#c_fe791a90f5471e2ab20a5ed41a7fa451" x="575.484375"/>
<use xlink:href="#c_8e0810ad13fe20a2a87a2619799b154d" x="638.863281"/>
</g>
</g>
</g>
</g>
</g>
</svg>
